<?xml version="1.0" encoding="UTF-8"?><svg xmlns="http://www.w3.org/2000/svg" xmlns:xlink="http://www.w3.org/1999/xlink" contentScriptType="text/ecmascript" width="150pt" zoomAndPan="magnify" contentStyleType="text/css" viewBox="0 0 150 44.999999" height="44.999999pt" preserveAspectRatio="xMidYMid meet" version="1.2"><defs><g/></defs><g xml:id="surface1" id="surface1"><g style="fill:rgb(100%,100%,100%);fill-opacity:1;"><g transform="translate(0.00000166667, 26.071095)"><path style="stroke:none;" d="M 7.363281 -11.585938 C 6.164062 -11.585938 5.222656 -11.265625 4.460938 -10.125 L 4.460938 -11.34375 L 1.101562 -11.34375 L 1.101562 3.921875 L 4.460938 3.921875 L 4.460938 -1.21875 C 5.222656 -0.078125 6.164062 0.238281 7.363281 0.238281 C 10.265625 0.238281 12.304688 -2.199219 12.304688 -5.664062 C 12.304688 -9.144531 10.265625 -11.585938 7.363281 -11.585938 Z M 6.421875 -8.722656 C 7.925781 -8.722656 8.90625 -7.464844 8.90625 -5.664062 C 8.90625 -3.882812 7.925781 -2.621094 6.421875 -2.621094 C 4.941406 -2.621094 3.941406 -3.84375 3.941406 -5.664062 C 3.941406 -7.503906 4.941406 -8.722656 6.421875 -8.722656 Z M 6.421875 -8.722656 "/></g></g><g style="fill:rgb(100%,100%,100%);fill-opacity:1;"><g transform="translate(12.482253, 26.071095)"><path style="stroke:none;" d="M 4.460938 0 L 4.460938 -4.78125 C 4.460938 -6.324219 4.722656 -7.222656 5.300781 -7.785156 C 5.703125 -8.164062 6.28125 -8.382812 7.222656 -8.382812 L 7.863281 -8.382812 L 7.863281 -11.585938 L 7.363281 -11.585938 C 6.164062 -11.585938 5.222656 -11.265625 4.460938 -10.125 L 4.460938 -11.34375 L 1.101562 -11.34375 L 1.101562 0 Z M 4.460938 0 "/></g></g><g style="fill:rgb(100%,100%,100%);fill-opacity:1;"><g transform="translate(20.183565, 26.071095)"><path style="stroke:none;" d="M 6.601562 0.238281 C 10.207031 0.238281 12.566406 -2.140625 12.566406 -5.742188 C 12.566406 -9.203125 10.164062 -11.585938 6.601562 -11.585938 C 3.042969 -11.585938 0.640625 -9.226562 0.640625 -5.742188 C 0.640625 -2.121094 3.0625 0.238281 6.601562 0.238281 Z M 6.601562 -2.640625 C 5.101562 -2.640625 4.101562 -3.84375 4.101562 -5.742188 C 4.101562 -7.523438 5.101562 -8.722656 6.601562 -8.722656 C 8.125 -8.722656 9.066406 -7.503906 9.066406 -5.742188 C 9.066406 -3.882812 8.125 -2.640625 6.601562 -2.640625 Z M 6.601562 -2.640625 "/></g></g><g style="fill:rgb(100%,100%,100%);fill-opacity:1;"><g transform="translate(32.88585, 26.071095)"><path style="stroke:none;" d="M 5.441406 0 L 5.441406 -8.746094 L 7.144531 -8.746094 L 7.144531 -11.34375 L 5.441406 -11.34375 L 5.441406 -11.945312 C 5.441406 -12.566406 5.84375 -12.6875 6.101562 -12.6875 L 7.144531 -12.6875 L 7.144531 -15.269531 L 5.28125 -15.269531 C 3.203125 -15.269531 2.042969 -14.226562 2.042969 -12.445312 L 2.042969 -11.34375 L 0.421875 -11.34375 L 0.421875 -8.746094 L 2.042969 -8.746094 L 2.042969 0 Z M 5.441406 0 "/></g></g><g style="fill:rgb(100%,100%,100%);fill-opacity:1;"><g transform="translate(39.947038, 26.071095)"><path style="stroke:none;" d="M 6.5625 0.238281 C 9.765625 0.238281 11.503906 -1.679688 12.144531 -3.921875 L 8.765625 -3.921875 C 8.484375 -3.222656 7.765625 -2.640625 6.742188 -2.640625 C 5.902344 -2.640625 5.222656 -2.902344 4.742188 -3.5 C 4.460938 -3.84375 4.242188 -4.402344 4.160156 -4.960938 L 12.324219 -4.960938 L 12.324219 -5.542969 C 12.324219 -9.925781 9.445312 -11.585938 6.464844 -11.585938 C 2.359375 -11.585938 0.640625 -8.464844 0.640625 -5.582031 C 0.640625 -2.222656 2.960938 0.238281 6.5625 0.238281 Z M 4.261719 -7.34375 C 4.300781 -7.605469 4.402344 -7.984375 4.78125 -8.363281 C 5.261719 -8.84375 5.902344 -9.023438 6.582031 -9.023438 C 7.261719 -9.023438 7.902344 -8.84375 8.382812 -8.363281 C 8.746094 -8.003906 8.863281 -7.605469 8.925781 -7.34375 Z M 4.261719 -7.34375 "/></g></g><g style="fill:rgb(100%,100%,100%);fill-opacity:1;"><g transform="translate(52.409287, 26.071095)"><path style="stroke:none;" d="M 6.203125 0.238281 C 9.226562 0.238281 11.066406 -1.28125 11.066406 -3.542969 C 11.066406 -6.183594 8.585938 -6.644531 6.601562 -7.003906 C 5.300781 -7.242188 4.222656 -7.445312 4.222656 -8.203125 C 4.222656 -8.722656 4.761719 -9.066406 5.582031 -9.066406 C 6.441406 -9.066406 7.304688 -8.664062 7.625 -7.582031 L 10.804688 -7.582031 C 10.386719 -10.164062 8.363281 -11.585938 5.601562 -11.585938 C 3.242188 -11.585938 1.039062 -10.625 1.039062 -8.125 C 1.039062 -5.441406 3.480469 -4.941406 5.421875 -4.5625 C 6.703125 -4.300781 7.765625 -4.082031 7.765625 -3.320312 C 7.765625 -2.679688 7.0625 -2.300781 6.164062 -2.300781 C 5.203125 -2.300781 4.222656 -2.78125 3.84375 -3.921875 L 0.582031 -3.921875 C 0.960938 -0.761719 3.820312 0.238281 6.203125 0.238281 Z M 6.203125 0.238281 "/></g></g><g style="fill:rgb(100%,100%,100%);fill-opacity:1;"><g transform="translate(63.671302, 26.071095)"><path style="stroke:none;" d="M 6.203125 0.238281 C 9.226562 0.238281 11.066406 -1.28125 11.066406 -3.542969 C 11.066406 -6.183594 8.585938 -6.644531 6.601562 -7.003906 C 5.300781 -7.242188 4.222656 -7.445312 4.222656 -8.203125 C 4.222656 -8.722656 4.761719 -9.066406 5.582031 -9.066406 C 6.441406 -9.066406 7.304688 -8.664062 7.625 -7.582031 L 10.804688 -7.582031 C 10.386719 -10.164062 8.363281 -11.585938 5.601562 -11.585938 C 3.242188 -11.585938 1.039062 -10.625 1.039062 -8.125 C 1.039062 -5.441406 3.480469 -4.941406 5.421875 -4.5625 C 6.703125 -4.300781 7.765625 -4.082031 7.765625 -3.320312 C 7.765625 -2.679688 7.0625 -2.300781 6.164062 -2.300781 C 5.203125 -2.300781 4.222656 -2.78125 3.84375 -3.921875 L 0.582031 -3.921875 C 0.960938 -0.761719 3.820312 0.238281 6.203125 0.238281 Z M 6.203125 0.238281 "/></g></g><g style="fill:rgb(100%,100%,100%);fill-opacity:1;"><g transform="translate(74.933318, 26.071095)"><path style="stroke:none;" d="M 2.78125 -12.125 C 3.820312 -12.125 4.683594 -12.765625 4.683594 -13.847656 C 4.683594 -14.90625 3.820312 -15.585938 2.78125 -15.585938 C 1.742188 -15.585938 0.878906 -14.90625 0.878906 -13.847656 C 0.878906 -12.765625 1.742188 -12.125 2.78125 -12.125 Z M 4.460938 0 L 4.460938 -11.34375 L 1.101562 -11.34375 L 1.101562 0 Z M 4.460938 0 "/></g></g><g style="fill:rgb(100%,100%,100%);fill-opacity:1;"><g transform="translate(79.994112, 26.071095)"><path style="stroke:none;" d="M 6.601562 0.238281 C 10.207031 0.238281 12.566406 -2.140625 12.566406 -5.742188 C 12.566406 -9.203125 10.164062 -11.585938 6.601562 -11.585938 C 3.042969 -11.585938 0.640625 -9.226562 0.640625 -5.742188 C 0.640625 -2.121094 3.0625 0.238281 6.601562 0.238281 Z M 6.601562 -2.640625 C 5.101562 -2.640625 4.101562 -3.84375 4.101562 -5.742188 C 4.101562 -7.523438 5.101562 -8.722656 6.601562 -8.722656 C 8.125 -8.722656 9.066406 -7.503906 9.066406 -5.742188 C 9.066406 -3.882812 8.125 -2.640625 6.601562 -2.640625 Z M 6.601562 -2.640625 "/></g></g><g style="fill:rgb(100%,100%,100%);fill-opacity:1;"><g transform="translate(92.696401, 26.071095)"><path style="stroke:none;" d="M 4.460938 0 L 4.460938 -6.382812 C 4.460938 -7.363281 4.601562 -7.925781 4.882812 -8.304688 C 5.183594 -8.722656 5.683594 -8.882812 6.382812 -8.882812 C 6.945312 -8.882812 7.34375 -8.765625 7.625 -8.464844 C 7.964844 -8.105469 8.105469 -7.503906 8.105469 -6.382812 L 8.105469 0 L 11.464844 0 L 11.464844 -6.34375 C 11.464844 -7.742188 11.464844 -8.644531 11.027344 -9.625 C 10.566406 -10.664062 9.605469 -11.585938 7.363281 -11.585938 C 6.164062 -11.585938 5.222656 -11.265625 4.460938 -10.125 L 4.460938 -11.34375 L 1.101562 -11.34375 L 1.101562 0 Z M 4.460938 0 "/></g></g><g style="fill:rgb(100%,100%,100%);fill-opacity:1;"><g transform="translate(104.678553, 26.071095)"><path style="stroke:none;" d="M 4.382812 0.238281 C 5.324219 0.238281 6.222656 0.101562 6.882812 -0.359375 C 7.242188 -0.601562 7.503906 -0.941406 7.683594 -1.378906 L 7.683594 0 L 11.046875 0 L 11.046875 -5.382812 C 11.046875 -7.484375 11.046875 -9.265625 9.644531 -10.464844 C 8.746094 -11.246094 7.445312 -11.585938 6.125 -11.585938 C 3.84375 -11.585938 1.5 -10.40625 1.082031 -7.5625 L 4.421875 -7.5625 C 4.582031 -8.523438 5.324219 -9.066406 6.101562 -9.066406 C 6.601562 -9.066406 6.984375 -8.945312 7.242188 -8.664062 C 7.503906 -8.363281 7.664062 -7.925781 7.703125 -7.34375 L 4.761719 -6.824219 C 3.902344 -6.664062 2.882812 -6.441406 2.082031 -5.921875 C 1.261719 -5.382812 0.660156 -4.542969 0.660156 -3.179688 C 0.660156 -0.902344 2.339844 0.238281 4.382812 0.238281 Z M 5.363281 -2.300781 C 4.640625 -2.300781 4.023438 -2.582031 4.023438 -3.300781 C 4.023438 -3.621094 4.140625 -3.84375 4.320312 -4.023438 C 4.601562 -4.28125 4.960938 -4.421875 5.703125 -4.5625 L 7.765625 -4.960938 C 7.722656 -3.722656 7.503906 -3 6.582031 -2.582031 C 6.183594 -2.402344 5.742188 -2.300781 5.363281 -2.300781 Z M 5.363281 -2.300781 "/></g></g><g style="fill:rgb(100%,100%,100%);fill-opacity:1;"><g transform="translate(116.200613, 26.071095)"><path style="stroke:none;" d="M 5.902344 0 L 5.902344 -2.722656 L 5.0625 -2.722656 C 4.800781 -2.722656 4.402344 -2.800781 4.402344 -3.421875 L 4.402344 -15.269531 L 1.039062 -15.269531 L 1.039062 -2.261719 C 1.039062 -0.820312 1.980469 0 3.640625 0 Z M 5.902344 0 "/></g></g><g style="fill:rgb(100%,100%,100%);fill-opacity:1;"><g transform="translate(122.061567, 26.071095)"><path style="stroke:none;" d="M 6.5625 0.238281 C 9.765625 0.238281 11.503906 -1.679688 12.144531 -3.921875 L 8.765625 -3.921875 C 8.484375 -3.222656 7.765625 -2.640625 6.742188 -2.640625 C 5.902344 -2.640625 5.222656 -2.902344 4.742188 -3.5 C 4.460938 -3.84375 4.242188 -4.402344 4.160156 -4.960938 L 12.324219 -4.960938 L 12.324219 -5.542969 C 12.324219 -9.925781 9.445312 -11.585938 6.464844 -11.585938 C 2.359375 -11.585938 0.640625 -8.464844 0.640625 -5.582031 C 0.640625 -2.222656 2.960938 0.238281 6.5625 0.238281 Z M 4.261719 -7.34375 C 4.300781 -7.605469 4.402344 -7.984375 4.78125 -8.363281 C 5.261719 -8.84375 5.902344 -9.023438 6.582031 -9.023438 C 7.261719 -9.023438 7.902344 -8.84375 8.382812 -8.363281 C 8.746094 -8.003906 8.863281 -7.605469 8.925781 -7.34375 Z M 4.261719 -7.34375 "/></g></g><g style="fill:rgb(100%,100%,100%);fill-opacity:1;"><g transform="translate(134.523816, 26.071095)"><path style="stroke:none;" d="M 5.621094 0.238281 C 6.824219 0.238281 7.765625 -0.078125 8.523438 -1.21875 L 8.523438 0 L 11.886719 0 L 11.886719 -15.269531 L 8.523438 -15.269531 L 8.523438 -10.125 C 7.765625 -11.265625 6.824219 -11.585938 5.621094 -11.585938 C 2.722656 -11.585938 0.679688 -9.144531 0.679688 -5.683594 C 0.679688 -2.199219 2.722656 0.238281 5.621094 0.238281 Z M 6.5625 -2.621094 C 5.0625 -2.621094 4.082031 -3.882812 4.082031 -5.683594 C 4.082031 -7.464844 5.0625 -8.722656 6.5625 -8.722656 C 8.042969 -8.722656 9.042969 -7.503906 9.042969 -5.683594 C 9.042969 -3.84375 8.042969 -2.621094 6.5625 -2.621094 Z M 6.5625 -2.621094 "/></g></g><g style="fill:rgb(100%,34.118652%,34.118652%);fill-opacity:1;"><g transform="translate(0.00000166667, 38.576666)"><path style="stroke:none;" d="M 3.335938 0 L 4.554688 -4.953125 L 5.761719 0 L 7.246094 0 L 8.96875 -6.316406 L 7.867188 -6.316406 L 6.484375 -1.066406 L 5.175781 -6.316406 L 3.925781 -6.316406 L 2.625 -1.078125 L 1.234375 -6.316406 L 0.132812 -6.316406 L 1.863281 0 Z M 3.335938 0 "/></g></g><g style="fill:rgb(100%,34.118652%,34.118652%);fill-opacity:1;"><g transform="translate(9.107861, 38.576666)"><path style="stroke:none;" d="M 4.769531 0 L 4.769531 -0.945312 L 1.640625 -0.945312 L 1.640625 -2.699219 L 4.421875 -2.699219 L 4.421875 -3.636719 L 1.640625 -3.636719 L 1.640625 -5.375 L 4.769531 -5.375 L 4.769531 -6.316406 L 0.585938 -6.316406 L 0.585938 0 Z M 4.769531 0 "/></g></g><g style="fill:rgb(100%,34.118652%,34.118652%);fill-opacity:1;"><g transform="translate(14.233106, 38.576666)"><path style="stroke:none;" d=""/></g></g><g style="fill:rgb(100%,34.118652%,34.118652%);fill-opacity:1;"><g transform="translate(16.485232, 38.576666)"><path style="stroke:none;" d="M 1.640625 0 L 1.640625 -2.699219 L 4.496094 -2.699219 L 4.496094 0 L 5.546875 0 L 5.546875 -6.316406 L 4.496094 -6.316406 L 4.496094 -3.636719 L 1.640625 -3.636719 L 1.640625 -6.316406 L 0.585938 -6.316406 L 0.585938 0 Z M 1.640625 0 "/></g></g><g style="fill:rgb(100%,34.118652%,34.118652%);fill-opacity:1;"><g transform="translate(22.637178, 38.576666)"><path style="stroke:none;" d="M 4.769531 0 L 4.769531 -0.945312 L 1.640625 -0.945312 L 1.640625 -2.699219 L 4.421875 -2.699219 L 4.421875 -3.636719 L 1.640625 -3.636719 L 1.640625 -5.375 L 4.769531 -5.375 L 4.769531 -6.316406 L 0.585938 -6.316406 L 0.585938 0 Z M 4.769531 0 "/></g></g><g style="fill:rgb(100%,34.118652%,34.118652%);fill-opacity:1;"><g transform="translate(27.762422, 38.576666)"><path style="stroke:none;" d="M 4.371094 0 L 4.371094 -0.945312 L 1.640625 -0.945312 L 1.640625 -6.316406 L 0.585938 -6.316406 L 0.585938 0 Z M 4.371094 0 "/></g></g><g style="fill:rgb(100%,34.118652%,34.118652%);fill-opacity:1;"><g transform="translate(32.233552, 38.576666)"><path style="stroke:none;" d="M 1.640625 0 L 1.640625 -2.574219 L 3.195312 -2.574219 C 4.386719 -2.574219 5.191406 -3.277344 5.191406 -4.472656 C 5.191406 -5.753906 4.378906 -6.316406 3.195312 -6.316406 L 0.585938 -6.316406 L 0.585938 0 Z M 1.640625 -5.375 L 3.054688 -5.375 C 3.757812 -5.375 4.15625 -5.042969 4.15625 -4.4375 C 4.15625 -3.824219 3.765625 -3.492188 3.054688 -3.492188 L 1.640625 -3.492188 Z M 1.640625 -5.375 "/></g></g><g style="fill:rgb(100%,34.118652%,34.118652%);fill-opacity:1;"><g transform="translate(37.673425, 38.576666)"><path style="stroke:none;" d=""/></g></g><g style="fill:rgb(100%,34.118652%,34.118652%);fill-opacity:1;"><g transform="translate(39.925551, 38.576666)"><path style="stroke:none;" d="M 0.445312 1.414062 C 1.480469 1.332031 1.855469 0.605469 1.855469 -0.0664062 C 1.855469 -0.6875 1.574219 -1.117188 1.050781 -1.117188 C 0.652344 -1.117188 0.398438 -0.859375 0.398438 -0.496094 C 0.398438 -0.132812 0.644531 0.0820312 0.910156 0.0820312 C 1.085938 0.0820312 1.21875 0.03125 1.308594 -0.0976562 C 1.316406 -0.015625 1.316406 0.0664062 1.308594 0.140625 C 1.273438 0.570312 0.96875 0.859375 0.445312 0.902344 Z M 0.445312 1.414062 "/></g></g><g style="fill:rgb(100%,34.118652%,34.118652%);fill-opacity:1;"><g transform="translate(42.177677, 38.576666)"><path style="stroke:none;" d="M 3.417969 0 L 3.417969 -2.449219 L 5.730469 -6.316406 L 4.511719 -6.316406 L 2.855469 -3.476562 L 1.21875 -6.316406 L -0.0078125 -6.316406 L 2.316406 -2.449219 L 2.316406 0 Z M 3.417969 0 "/></g></g><g style="fill:rgb(100%,34.118652%,34.118652%);fill-opacity:1;"><g transform="translate(47.907353, 38.576666)"><path style="stroke:none;" d="M 3.378906 0.109375 C 5.429688 0.109375 6.398438 -1.425781 6.398438 -3.164062 C 6.398438 -4.902344 5.429688 -6.417969 3.378906 -6.417969 C 1.316406 -6.417969 0.355469 -4.902344 0.355469 -3.164062 C 0.355469 -1.425781 1.316406 0.109375 3.378906 0.109375 Z M 3.378906 -0.835938 C 2.136719 -0.835938 1.441406 -1.796875 1.441406 -3.164062 C 1.441406 -4.519531 2.136719 -5.480469 3.378906 -5.480469 C 4.628906 -5.480469 5.316406 -4.519531 5.316406 -3.164062 C 5.316406 -1.796875 4.628906 -0.835938 3.378906 -0.835938 Z M 3.378906 -0.835938 "/></g></g><g style="fill:rgb(100%,34.118652%,34.118652%);fill-opacity:1;"><g transform="translate(54.672006, 38.576666)"><path style="stroke:none;" d="M 3.015625 0.109375 C 4.753906 0.109375 5.488281 -0.835938 5.488281 -2.253906 L 5.488281 -6.316406 L 4.4375 -6.316406 L 4.4375 -2.253906 C 4.4375 -1.40625 4.058594 -0.828125 3.015625 -0.828125 C 1.960938 -0.828125 1.582031 -1.40625 1.582031 -2.253906 L 1.582031 -6.316406 L 0.53125 -6.316406 L 0.53125 -2.253906 C 0.53125 -0.835938 1.273438 0.109375 3.015625 0.109375 Z M 3.015625 0.109375 "/></g></g><g style="fill:rgb(100%,34.118652%,34.118652%);fill-opacity:1;"><g transform="translate(60.69976, 38.576666)"><path style="stroke:none;" d=""/></g></g><g style="fill:rgb(100%,34.118652%,34.118652%);fill-opacity:1;"><g transform="translate(62.951886, 38.576666)"><path style="stroke:none;" d="M 3.023438 0.109375 C 4.503906 0.109375 5.339844 -0.644531 5.339844 -1.8125 C 5.339844 -3.230469 4.132812 -3.484375 3.082031 -3.71875 C 2.285156 -3.890625 1.582031 -4.050781 1.582031 -4.695312 C 1.582031 -5.214844 2.011719 -5.515625 2.691406 -5.515625 C 3.363281 -5.515625 3.941406 -5.214844 4.113281 -4.488281 L 5.167969 -4.488281 C 4.960938 -5.828125 3.882812 -6.417969 2.707031 -6.417969 C 1.457031 -6.417969 0.53125 -5.769531 0.53125 -4.605469 C 0.53125 -3.304688 1.671875 -3.054688 2.683594 -2.839844 C 3.519531 -2.65625 4.289062 -2.492188 4.289062 -1.746094 C 4.289062 -1.101562 3.777344 -0.792969 3.039062 -0.792969 C 2.34375 -0.792969 1.589844 -1.066406 1.382812 -2.003906 L 0.316406 -2.003906 C 0.488281 -0.445312 1.796875 0.109375 3.023438 0.109375 Z M 3.023438 0.109375 "/></g></g><g style="fill:rgb(100%,34.118652%,34.118652%);fill-opacity:1;"><g transform="translate(68.656715, 38.576666)"><path style="stroke:none;" d="M 4.769531 0 L 4.769531 -0.945312 L 1.640625 -0.945312 L 1.640625 -2.699219 L 4.421875 -2.699219 L 4.421875 -3.636719 L 1.640625 -3.636719 L 1.640625 -5.375 L 4.769531 -5.375 L 4.769531 -6.316406 L 0.585938 -6.316406 L 0.585938 0 Z M 4.769531 0 "/></g></g><g style="fill:rgb(100%,34.118652%,34.118652%);fill-opacity:1;"><g transform="translate(73.78196, 38.576666)"><path style="stroke:none;" d="M 4.371094 0 L 4.371094 -0.945312 L 1.640625 -0.945312 L 1.640625 -6.316406 L 0.585938 -6.316406 L 0.585938 0 Z M 4.371094 0 "/></g></g><g style="fill:rgb(100%,34.118652%,34.118652%);fill-opacity:1;"><g transform="translate(78.25309, 38.576666)"><path style="stroke:none;" d="M 4.769531 0 L 4.769531 -0.945312 L 1.640625 -0.945312 L 1.640625 -2.699219 L 4.421875 -2.699219 L 4.421875 -3.636719 L 1.640625 -3.636719 L 1.640625 -5.375 L 4.769531 -5.375 L 4.769531 -6.316406 L 0.585938 -6.316406 L 0.585938 0 Z M 4.769531 0 "/></g></g><g style="fill:rgb(100%,34.118652%,34.118652%);fill-opacity:1;"><g transform="translate(83.378334, 38.576666)"><path style="stroke:none;" d="M 3.363281 0.109375 C 4.875 0.109375 5.8125 -0.71875 6.003906 -2.003906 L 4.851562 -2.003906 C 4.71875 -1.21875 4.140625 -0.828125 3.34375 -0.828125 C 2.09375 -0.828125 1.441406 -1.796875 1.441406 -3.164062 C 1.441406 -4.519531 2.09375 -5.480469 3.34375 -5.480469 C 4.140625 -5.480469 4.71875 -5.09375 4.851562 -4.414062 L 6.003906 -4.414062 C 5.820312 -5.605469 4.875 -6.417969 3.363281 -6.417969 C 1.300781 -6.417969 0.355469 -4.894531 0.355469 -3.164062 C 0.355469 -1.433594 1.300781 0.109375 3.363281 0.109375 Z M 3.363281 0.109375 "/></g></g><g style="fill:rgb(100%,34.118652%,34.118652%);fill-opacity:1;"><g transform="translate(89.671044, 38.576666)"><path style="stroke:none;" d="M 3.136719 0 L 3.136719 -5.375 L 5.140625 -5.375 L 5.140625 -6.316406 L 0.0976562 -6.316406 L 0.0976562 -5.375 L 2.085938 -5.375 L 2.085938 0 Z M 3.136719 0 "/></g></g></g></svg>