<?xml version="1.0" encoding="UTF-8"?><svg xmlns="http://www.w3.org/2000/svg" xmlns:xlink="http://www.w3.org/1999/xlink" contentScriptType="text/ecmascript" width="90pt" zoomAndPan="magnify" contentStyleType="text/css" viewBox="0 0 90 37.5" height="37.5pt" preserveAspectRatio="xMidYMid meet" version="1.2"><defs><g/><clipPath xml:id="clip1" id="clip1"><path d="M 0.59375 0 L 89.40625 0 L 89.40625 37.007812 L 0.59375 37.007812 Z M 0.59375 0 "/></clipPath><clipPath xml:id="clip2" id="clip2"><path d="M 0.59375 24 L 6 24 L 6 29 L 0.59375 29 Z M 0.59375 24 "/></clipPath></defs><g xml:id="surface1" id="surface1"><g clip-rule="nonzero" clip-path="url(#clip1)"><path style=" stroke:none;fill-rule:nonzero;fill:rgb(100%,100%,100%);fill-opacity:1;" d="M 0.59375 0 L 89.40625 0 L 89.40625 44.40625 L 0.59375 44.40625 Z M 0.59375 0 "/><path style=" stroke:none;fill-rule:nonzero;fill:rgb(100%,100%,100%);fill-opacity:1;" d="M 0.59375 0 L 89.40625 0 L 89.40625 37.007812 L 0.59375 37.007812 Z M 0.59375 0 "/><path style=" stroke:none;fill-rule:nonzero;fill:rgb(4.708862%,13.729858%,21.569824%);fill-opacity:1;" d="M 0.59375 0 L 89.40625 0 L 89.40625 37.007812 L 0.59375 37.007812 Z M 0.59375 0 "/></g><g style="fill:rgb(100%,100%,100%);fill-opacity:1;"><g transform="translate(0.592105, 21.00925)"><path style="stroke:none;" d="M 4.359375 -6.859375 C 3.648438 -6.859375 3.09375 -6.671875 2.640625 -5.996094 L 2.640625 -6.71875 L 0.652344 -6.71875 L 0.652344 2.324219 L 2.640625 2.324219 L 2.640625 -0.722656 C 3.09375 -0.046875 3.648438 0.140625 4.359375 0.140625 C 6.078125 0.140625 7.289062 -1.304688 7.289062 -3.351562 C 7.289062 -5.414062 6.078125 -6.859375 4.359375 -6.859375 Z M 3.804688 -5.167969 C 4.691406 -5.167969 5.273438 -4.417969 5.273438 -3.351562 C 5.273438 -2.296875 4.691406 -1.550781 3.804688 -1.550781 C 2.925781 -1.550781 2.335938 -2.273438 2.335938 -3.351562 C 2.335938 -4.445312 2.925781 -5.167969 3.804688 -5.167969 Z M 3.804688 -5.167969 "/></g></g><g style="fill:rgb(100%,100%,100%);fill-opacity:1;"><g transform="translate(7.981301, 21.00925)"><path style="stroke:none;" d="M 2.640625 0 L 2.640625 -2.832031 C 2.640625 -3.746094 2.796875 -4.277344 3.140625 -4.609375 C 3.378906 -4.835938 3.722656 -4.964844 4.277344 -4.964844 L 4.65625 -4.964844 L 4.65625 -6.859375 L 4.359375 -6.859375 C 3.648438 -6.859375 3.09375 -6.671875 2.640625 -5.996094 L 2.640625 -6.71875 L 0.652344 -6.71875 L 0.652344 0 Z M 2.640625 0 "/></g></g><g style="fill:rgb(100%,100%,100%);fill-opacity:1;"><g transform="translate(12.540231, 21.00925)"><path style="stroke:none;" d="M 3.910156 0.140625 C 6.042969 0.140625 7.441406 -1.269531 7.441406 -3.402344 C 7.441406 -5.449219 6.019531 -6.859375 3.910156 -6.859375 C 1.800781 -6.859375 0.378906 -5.460938 0.378906 -3.402344 C 0.378906 -1.257812 1.8125 0.140625 3.910156 0.140625 Z M 3.910156 -1.5625 C 3.023438 -1.5625 2.429688 -2.273438 2.429688 -3.402344 C 2.429688 -4.457031 3.023438 -5.167969 3.910156 -5.167969 C 4.8125 -5.167969 5.367188 -4.445312 5.367188 -3.402344 C 5.367188 -2.296875 4.8125 -1.5625 3.910156 -1.5625 Z M 3.910156 -1.5625 "/></g></g><g style="fill:rgb(100%,100%,100%);fill-opacity:1;"><g transform="translate(20.059697, 21.00925)"><path style="stroke:none;" d="M 3.222656 0 L 3.222656 -5.179688 L 4.230469 -5.179688 L 4.230469 -6.71875 L 3.222656 -6.71875 L 3.222656 -7.074219 C 3.222656 -7.441406 3.460938 -7.511719 3.613281 -7.511719 L 4.230469 -7.511719 L 4.230469 -9.042969 L 3.128906 -9.042969 C 1.894531 -9.042969 1.207031 -8.425781 1.207031 -7.371094 L 1.207031 -6.71875 L 0.25 -6.71875 L 0.25 -5.179688 L 1.207031 -5.179688 L 1.207031 0 Z M 3.222656 0 "/></g></g><g style="fill:rgb(100%,100%,100%);fill-opacity:1;"><g transform="translate(24.239684, 21.00925)"><path style="stroke:none;" d="M 3.886719 0.140625 C 5.78125 0.140625 6.8125 -0.996094 7.191406 -2.324219 L 5.191406 -2.324219 C 5.023438 -1.90625 4.597656 -1.5625 3.992188 -1.5625 C 3.496094 -1.5625 3.09375 -1.71875 2.808594 -2.074219 C 2.640625 -2.273438 2.511719 -2.605469 2.464844 -2.9375 L 7.300781 -2.9375 L 7.300781 -3.28125 C 7.300781 -5.878906 5.59375 -6.859375 3.828125 -6.859375 C 1.398438 -6.859375 0.378906 -5.011719 0.378906 -3.304688 C 0.378906 -1.316406 1.753906 0.140625 3.886719 0.140625 Z M 2.523438 -4.347656 C 2.546875 -4.503906 2.605469 -4.726562 2.832031 -4.953125 C 3.117188 -5.238281 3.496094 -5.34375 3.898438 -5.34375 C 4.300781 -5.34375 4.679688 -5.238281 4.964844 -4.953125 C 5.179688 -4.738281 5.25 -4.503906 5.285156 -4.347656 Z M 2.523438 -4.347656 "/></g></g><g style="fill:rgb(100%,100%,100%);fill-opacity:1;"><g transform="translate(31.617046, 21.00925)"><path style="stroke:none;" d="M 3.671875 0.140625 C 5.460938 0.140625 6.554688 -0.757812 6.554688 -2.097656 C 6.554688 -3.660156 5.082031 -3.933594 3.910156 -4.148438 C 3.140625 -4.289062 2.5 -4.40625 2.5 -4.859375 C 2.5 -5.167969 2.820312 -5.367188 3.304688 -5.367188 C 3.816406 -5.367188 4.324219 -5.128906 4.515625 -4.492188 L 6.398438 -4.492188 C 6.148438 -6.019531 4.953125 -6.859375 3.316406 -6.859375 C 1.917969 -6.859375 0.617188 -6.292969 0.617188 -4.8125 C 0.617188 -3.222656 2.0625 -2.925781 3.210938 -2.703125 C 3.96875 -2.546875 4.597656 -2.417969 4.597656 -1.96875 C 4.597656 -1.585938 4.183594 -1.363281 3.648438 -1.363281 C 3.082031 -1.363281 2.5 -1.648438 2.273438 -2.324219 L 0.34375 -2.324219 C 0.570312 -0.449219 2.261719 0.140625 3.671875 0.140625 Z M 3.671875 0.140625 "/></g></g><g style="fill:rgb(100%,100%,100%);fill-opacity:1;"><g transform="translate(38.283877, 21.00925)"><path style="stroke:none;" d="M 3.671875 0.140625 C 5.460938 0.140625 6.554688 -0.757812 6.554688 -2.097656 C 6.554688 -3.660156 5.082031 -3.933594 3.910156 -4.148438 C 3.140625 -4.289062 2.5 -4.40625 2.5 -4.859375 C 2.5 -5.167969 2.820312 -5.367188 3.304688 -5.367188 C 3.816406 -5.367188 4.324219 -5.128906 4.515625 -4.492188 L 6.398438 -4.492188 C 6.148438 -6.019531 4.953125 -6.859375 3.316406 -6.859375 C 1.917969 -6.859375 0.617188 -6.292969 0.617188 -4.8125 C 0.617188 -3.222656 2.0625 -2.925781 3.210938 -2.703125 C 3.96875 -2.546875 4.597656 -2.417969 4.597656 -1.96875 C 4.597656 -1.585938 4.183594 -1.363281 3.648438 -1.363281 C 3.082031 -1.363281 2.5 -1.648438 2.273438 -2.324219 L 0.34375 -2.324219 C 0.570312 -0.449219 2.261719 0.140625 3.671875 0.140625 Z M 3.671875 0.140625 "/></g></g><g style="fill:rgb(100%,100%,100%);fill-opacity:1;"><g transform="translate(44.950708, 21.00925)"><path style="stroke:none;" d="M 1.648438 -7.179688 C 2.261719 -7.179688 2.773438 -7.558594 2.773438 -8.199219 C 2.773438 -8.828125 2.261719 -9.230469 1.648438 -9.230469 C 1.03125 -9.230469 0.519531 -8.828125 0.519531 -8.199219 C 0.519531 -7.558594 1.03125 -7.179688 1.648438 -7.179688 Z M 2.640625 0 L 2.640625 -6.71875 L 0.652344 -6.71875 L 0.652344 0 Z M 2.640625 0 "/></g></g><g style="fill:rgb(100%,100%,100%);fill-opacity:1;"><g transform="translate(47.946481, 21.00925)"><path style="stroke:none;" d="M 3.910156 0.140625 C 6.042969 0.140625 7.441406 -1.269531 7.441406 -3.402344 C 7.441406 -5.449219 6.019531 -6.859375 3.910156 -6.859375 C 1.800781 -6.859375 0.378906 -5.460938 0.378906 -3.402344 C 0.378906 -1.257812 1.8125 0.140625 3.910156 0.140625 Z M 3.910156 -1.5625 C 3.023438 -1.5625 2.429688 -2.273438 2.429688 -3.402344 C 2.429688 -4.457031 3.023438 -5.167969 3.910156 -5.167969 C 4.8125 -5.167969 5.367188 -4.445312 5.367188 -3.402344 C 5.367188 -2.296875 4.8125 -1.5625 3.910156 -1.5625 Z M 3.910156 -1.5625 "/></g></g><g style="fill:rgb(100%,100%,100%);fill-opacity:1;"><g transform="translate(55.465949, 21.00925)"><path style="stroke:none;" d="M 2.640625 0 L 2.640625 -3.78125 C 2.640625 -4.359375 2.726562 -4.691406 2.890625 -4.917969 C 3.070312 -5.167969 3.367188 -5.261719 3.78125 -5.261719 C 4.113281 -5.261719 4.347656 -5.191406 4.515625 -5.011719 C 4.714844 -4.800781 4.800781 -4.445312 4.800781 -3.78125 L 4.800781 0 L 6.789062 0 L 6.789062 -3.757812 C 6.789062 -4.585938 6.789062 -5.117188 6.527344 -5.699219 C 6.257812 -6.316406 5.6875 -6.859375 4.359375 -6.859375 C 3.648438 -6.859375 3.09375 -6.671875 2.640625 -5.996094 L 2.640625 -6.71875 L 0.652344 -6.71875 L 0.652344 0 Z M 2.640625 0 "/></g></g><g style="fill:rgb(100%,100%,100%);fill-opacity:1;"><g transform="translate(62.559099, 21.00925)"><path style="stroke:none;" d="M 2.59375 0.140625 C 3.152344 0.140625 3.683594 0.0585938 4.078125 -0.214844 C 4.289062 -0.355469 4.445312 -0.558594 4.550781 -0.816406 L 4.550781 0 L 6.539062 0 L 6.539062 -3.1875 C 6.539062 -4.433594 6.539062 -5.484375 5.710938 -6.199219 C 5.179688 -6.660156 4.40625 -6.859375 3.625 -6.859375 C 2.273438 -6.859375 0.890625 -6.160156 0.640625 -4.480469 L 2.617188 -4.480469 C 2.714844 -5.046875 3.152344 -5.367188 3.613281 -5.367188 C 3.910156 -5.367188 4.136719 -5.296875 4.289062 -5.128906 C 4.445312 -4.953125 4.539062 -4.691406 4.5625 -4.347656 L 2.820312 -4.039062 C 2.3125 -3.945312 1.707031 -3.816406 1.230469 -3.507812 C 0.746094 -3.1875 0.390625 -2.691406 0.390625 -1.882812 C 0.390625 -0.535156 1.386719 0.140625 2.59375 0.140625 Z M 3.175781 -1.363281 C 2.75 -1.363281 2.382812 -1.527344 2.382812 -1.957031 C 2.382812 -2.144531 2.453125 -2.273438 2.558594 -2.382812 C 2.726562 -2.535156 2.9375 -2.617188 3.378906 -2.703125 L 4.597656 -2.9375 C 4.574219 -2.203125 4.445312 -1.777344 3.898438 -1.527344 C 3.660156 -1.421875 3.402344 -1.363281 3.175781 -1.363281 Z M 3.175781 -1.363281 "/></g></g><g style="fill:rgb(100%,100%,100%);fill-opacity:1;"><g transform="translate(69.379871, 21.00925)"><path style="stroke:none;" d="M 3.496094 0 L 3.496094 -1.613281 L 2.996094 -1.613281 C 2.84375 -1.613281 2.605469 -1.660156 2.605469 -2.027344 L 2.605469 -9.042969 L 0.617188 -9.042969 L 0.617188 -1.339844 C 0.617188 -0.484375 1.171875 0 2.15625 0 Z M 3.496094 0 "/></g></g><g style="fill:rgb(100%,100%,100%);fill-opacity:1;"><g transform="translate(72.849328, 21.00925)"><path style="stroke:none;" d="M 3.886719 0.140625 C 5.78125 0.140625 6.8125 -0.996094 7.191406 -2.324219 L 5.191406 -2.324219 C 5.023438 -1.90625 4.597656 -1.5625 3.992188 -1.5625 C 3.496094 -1.5625 3.09375 -1.71875 2.808594 -2.074219 C 2.640625 -2.273438 2.511719 -2.605469 2.464844 -2.9375 L 7.300781 -2.9375 L 7.300781 -3.28125 C 7.300781 -5.878906 5.59375 -6.859375 3.828125 -6.859375 C 1.398438 -6.859375 0.378906 -5.011719 0.378906 -3.304688 C 0.378906 -1.316406 1.753906 0.140625 3.886719 0.140625 Z M 2.523438 -4.347656 C 2.546875 -4.503906 2.605469 -4.726562 2.832031 -4.953125 C 3.117188 -5.238281 3.496094 -5.34375 3.898438 -5.34375 C 4.300781 -5.34375 4.679688 -5.238281 4.964844 -4.953125 C 5.179688 -4.738281 5.25 -4.503906 5.285156 -4.347656 Z M 2.523438 -4.347656 "/></g></g><g style="fill:rgb(100%,100%,100%);fill-opacity:1;"><g transform="translate(80.22669, 21.00925)"><path style="stroke:none;" d="M 3.328125 0.140625 C 4.039062 0.140625 4.597656 -0.046875 5.046875 -0.722656 L 5.046875 0 L 7.039062 0 L 7.039062 -9.042969 L 5.046875 -9.042969 L 5.046875 -5.996094 C 4.597656 -6.671875 4.039062 -6.859375 3.328125 -6.859375 C 1.613281 -6.859375 0.402344 -5.414062 0.402344 -3.367188 C 0.402344 -1.304688 1.613281 0.140625 3.328125 0.140625 Z M 3.886719 -1.550781 C 2.996094 -1.550781 2.417969 -2.296875 2.417969 -3.367188 C 2.417969 -4.417969 2.996094 -5.167969 3.886719 -5.167969 C 4.761719 -5.167969 5.355469 -4.445312 5.355469 -3.367188 C 5.355469 -2.273438 4.761719 -1.550781 3.886719 -1.550781 Z M 3.886719 -1.550781 "/></g></g><g clip-rule="nonzero" clip-path="url(#clip2)"><g style="fill:rgb(100%,34.118652%,34.118652%);fill-opacity:1;"><g transform="translate(0.592105, 28.387824)"><path style="stroke:none;" d="M 1.902344 0 L 2.59375 -2.820312 L 3.28125 0 L 4.128906 0 L 5.109375 -3.597656 L 4.480469 -3.597656 L 3.695312 -0.609375 L 2.949219 -3.597656 L 2.234375 -3.597656 L 1.496094 -0.613281 L 0.703125 -3.597656 L 0.0742188 -3.597656 L 1.0625 0 Z M 1.902344 0 "/></g></g></g><g style="fill:rgb(100%,34.118652%,34.118652%);fill-opacity:1;"><g transform="translate(5.78077, 28.387824)"><path style="stroke:none;" d="M 2.71875 0 L 2.71875 -0.539062 L 0.933594 -0.539062 L 0.933594 -1.539062 L 2.519531 -1.539062 L 2.519531 -2.070312 L 0.933594 -2.070312 L 0.933594 -3.0625 L 2.71875 -3.0625 L 2.71875 -3.597656 L 0.335938 -3.597656 L 0.335938 0 Z M 2.71875 0 "/></g></g><g style="fill:rgb(100%,34.118652%,34.118652%);fill-opacity:1;"><g transform="translate(8.700575, 28.387824)"><path style="stroke:none;" d=""/></g></g><g style="fill:rgb(100%,34.118652%,34.118652%);fill-opacity:1;"><g transform="translate(9.983591, 28.387824)"><path style="stroke:none;" d="M 0.933594 0 L 0.933594 -1.539062 L 2.5625 -1.539062 L 2.5625 0 L 3.160156 0 L 3.160156 -3.597656 L 2.5625 -3.597656 L 2.5625 -2.070312 L 0.933594 -2.070312 L 0.933594 -3.597656 L 0.335938 -3.597656 L 0.335938 0 Z M 0.933594 0 "/></g></g><g style="fill:rgb(100%,34.118652%,34.118652%);fill-opacity:1;"><g transform="translate(13.488299, 28.387824)"><path style="stroke:none;" d="M 2.71875 0 L 2.71875 -0.539062 L 0.933594 -0.539062 L 0.933594 -1.539062 L 2.519531 -1.539062 L 2.519531 -2.070312 L 0.933594 -2.070312 L 0.933594 -3.0625 L 2.71875 -3.0625 L 2.71875 -3.597656 L 0.335938 -3.597656 L 0.335938 0 Z M 2.71875 0 "/></g></g><g style="fill:rgb(100%,34.118652%,34.118652%);fill-opacity:1;"><g transform="translate(16.408104, 28.387824)"><path style="stroke:none;" d="M 2.492188 0 L 2.492188 -0.539062 L 0.933594 -0.539062 L 0.933594 -3.597656 L 0.335938 -3.597656 L 0.335938 0 Z M 2.492188 0 "/></g></g><g style="fill:rgb(100%,34.118652%,34.118652%);fill-opacity:1;"><g transform="translate(18.955266, 28.387824)"><path style="stroke:none;" d="M 0.933594 0 L 0.933594 -1.46875 L 1.820312 -1.46875 C 2.5 -1.46875 2.957031 -1.867188 2.957031 -2.546875 C 2.957031 -3.277344 2.496094 -3.597656 1.820312 -3.597656 L 0.335938 -3.597656 L 0.335938 0 Z M 0.933594 -3.0625 L 1.742188 -3.0625 C 2.140625 -3.0625 2.367188 -2.871094 2.367188 -2.527344 C 2.367188 -2.179688 2.144531 -1.992188 1.742188 -1.992188 L 0.933594 -1.992188 Z M 0.933594 -3.0625 "/></g></g><g style="fill:rgb(100%,34.118652%,34.118652%);fill-opacity:1;"><g transform="translate(22.054312, 28.387824)"><path style="stroke:none;" d=""/></g></g><g style="fill:rgb(100%,34.118652%,34.118652%);fill-opacity:1;"><g transform="translate(23.337327, 28.387824)"><path style="stroke:none;" d="M 0.253906 0.804688 C 0.84375 0.757812 1.054688 0.34375 1.054688 -0.0390625 C 1.054688 -0.390625 0.894531 -0.636719 0.597656 -0.636719 C 0.371094 -0.636719 0.226562 -0.492188 0.226562 -0.28125 C 0.226562 -0.0742188 0.367188 0.046875 0.519531 0.046875 C 0.617188 0.046875 0.695312 0.0195312 0.746094 -0.0546875 C 0.75 -0.0078125 0.75 0.0390625 0.746094 0.0820312 C 0.726562 0.324219 0.550781 0.492188 0.253906 0.515625 Z M 0.253906 0.804688 "/></g></g><g style="fill:rgb(100%,34.118652%,34.118652%);fill-opacity:1;"><g transform="translate(24.620343, 28.387824)"><path style="stroke:none;" d="M 1.949219 0 L 1.949219 -1.394531 L 3.265625 -3.597656 L 2.570312 -3.597656 L 1.628906 -1.980469 L 0.695312 -3.597656 L -0.00390625 -3.597656 L 1.320312 -1.394531 L 1.320312 0 Z M 1.949219 0 "/></g></g><g style="fill:rgb(100%,34.118652%,34.118652%);fill-opacity:1;"><g transform="translate(27.884487, 28.387824)"><path style="stroke:none;" d="M 1.925781 0.0625 C 3.09375 0.0625 3.644531 -0.8125 3.644531 -1.800781 C 3.644531 -2.792969 3.09375 -3.65625 1.925781 -3.65625 C 0.75 -3.65625 0.203125 -2.792969 0.203125 -1.800781 C 0.203125 -0.8125 0.75 0.0625 1.925781 0.0625 Z M 1.925781 -0.476562 C 1.21875 -0.476562 0.820312 -1.023438 0.820312 -1.800781 C 0.820312 -2.574219 1.21875 -3.121094 1.925781 -3.121094 C 2.636719 -3.121094 3.027344 -2.574219 3.027344 -1.800781 C 3.027344 -1.023438 2.636719 -0.476562 1.925781 -0.476562 Z M 1.925781 -0.476562 "/></g></g><g style="fill:rgb(100%,34.118652%,34.118652%);fill-opacity:1;"><g transform="translate(31.738249, 28.387824)"><path style="stroke:none;" d="M 1.71875 0.0625 C 2.707031 0.0625 3.128906 -0.476562 3.128906 -1.28125 L 3.128906 -3.597656 L 2.527344 -3.597656 L 2.527344 -1.28125 C 2.527344 -0.800781 2.3125 -0.472656 1.71875 -0.472656 C 1.117188 -0.472656 0.902344 -0.800781 0.902344 -1.28125 L 0.902344 -3.597656 L 0.300781 -3.597656 L 0.300781 -1.28125 C 0.300781 -0.476562 0.726562 0.0625 1.71875 0.0625 Z M 1.71875 0.0625 "/></g></g><g style="fill:rgb(100%,34.118652%,34.118652%);fill-opacity:1;"><g transform="translate(35.172205, 28.387824)"><path style="stroke:none;" d=""/></g></g><g style="fill:rgb(100%,34.118652%,34.118652%);fill-opacity:1;"><g transform="translate(36.455221, 28.387824)"><path style="stroke:none;" d="M 1.722656 0.0625 C 2.566406 0.0625 3.042969 -0.367188 3.042969 -1.03125 C 3.042969 -1.839844 2.355469 -1.984375 1.753906 -2.117188 C 1.300781 -2.21875 0.902344 -2.304688 0.902344 -2.675781 C 0.902344 -2.972656 1.144531 -3.140625 1.53125 -3.140625 C 1.914062 -3.140625 2.246094 -2.972656 2.34375 -2.554688 L 2.945312 -2.554688 C 2.824219 -3.320312 2.210938 -3.65625 1.542969 -3.65625 C 0.832031 -3.65625 0.300781 -3.289062 0.300781 -2.621094 C 0.300781 -1.882812 0.953125 -1.742188 1.527344 -1.617188 C 2.003906 -1.515625 2.445312 -1.417969 2.445312 -0.996094 C 2.445312 -0.628906 2.152344 -0.453125 1.730469 -0.453125 C 1.335938 -0.453125 0.90625 -0.609375 0.789062 -1.140625 L 0.179688 -1.140625 C 0.277344 -0.253906 1.023438 0.0625 1.722656 0.0625 Z M 1.722656 0.0625 "/></g></g><g style="fill:rgb(100%,34.118652%,34.118652%);fill-opacity:1;"><g transform="translate(39.70521, 28.387824)"><path style="stroke:none;" d="M 2.71875 0 L 2.71875 -0.539062 L 0.933594 -0.539062 L 0.933594 -1.539062 L 2.519531 -1.539062 L 2.519531 -2.070312 L 0.933594 -2.070312 L 0.933594 -3.0625 L 2.71875 -3.0625 L 2.71875 -3.597656 L 0.335938 -3.597656 L 0.335938 0 Z M 2.71875 0 "/></g></g><g style="fill:rgb(100%,34.118652%,34.118652%);fill-opacity:1;"><g transform="translate(42.625015, 28.387824)"><path style="stroke:none;" d="M 2.492188 0 L 2.492188 -0.539062 L 0.933594 -0.539062 L 0.933594 -3.597656 L 0.335938 -3.597656 L 0.335938 0 Z M 2.492188 0 "/></g></g><g style="fill:rgb(100%,34.118652%,34.118652%);fill-opacity:1;"><g transform="translate(45.172177, 28.387824)"><path style="stroke:none;" d="M 2.71875 0 L 2.71875 -0.539062 L 0.933594 -0.539062 L 0.933594 -1.539062 L 2.519531 -1.539062 L 2.519531 -2.070312 L 0.933594 -2.070312 L 0.933594 -3.0625 L 2.71875 -3.0625 L 2.71875 -3.597656 L 0.335938 -3.597656 L 0.335938 0 Z M 2.71875 0 "/></g></g><g style="fill:rgb(100%,34.118652%,34.118652%);fill-opacity:1;"><g transform="translate(48.091982, 28.387824)"><path style="stroke:none;" d="M 1.914062 0.0625 C 2.777344 0.0625 3.3125 -0.410156 3.417969 -1.140625 L 2.765625 -1.140625 C 2.6875 -0.695312 2.359375 -0.472656 1.90625 -0.472656 C 1.195312 -0.472656 0.820312 -1.023438 0.820312 -1.800781 C 0.820312 -2.574219 1.195312 -3.121094 1.90625 -3.121094 C 2.359375 -3.121094 2.6875 -2.902344 2.765625 -2.515625 L 3.417969 -2.515625 C 3.316406 -3.195312 2.777344 -3.65625 1.914062 -3.65625 C 0.742188 -3.65625 0.203125 -2.789062 0.203125 -1.800781 C 0.203125 -0.816406 0.742188 0.0625 1.914062 0.0625 Z M 1.914062 0.0625 "/></g></g><g style="fill:rgb(100%,34.118652%,34.118652%);fill-opacity:1;"><g transform="translate(51.676882, 28.387824)"><path style="stroke:none;" d="M 1.789062 0 L 1.789062 -3.0625 L 2.929688 -3.0625 L 2.929688 -3.597656 L 0.0546875 -3.597656 L 0.0546875 -3.0625 L 1.1875 -3.0625 L 1.1875 0 Z M 1.789062 0 "/></g></g></g></svg>