<?xml version="1.0" encoding="UTF-8"?><svg xmlns="http://www.w3.org/2000/svg" xmlns:xlink="http://www.w3.org/1999/xlink" contentScriptType="text/ecmascript" width="37.5pt" zoomAndPan="magnify" contentStyleType="text/css" viewBox="0 0 37.5 37.499999" height="37.499999pt" preserveAspectRatio="xMidYMid meet" version="1.2"><defs><g/><clipPath xml:id="clip1" id="clip1"><path d="M 0 0 L 37.007812 0 L 37.007812 37.007812 L 0 37.007812 Z M 0 0 "/></clipPath></defs><g xml:id="surface1" id="surface1"><g clip-rule="nonzero" clip-path="url(#clip1)"><path style=" stroke:none;fill-rule:nonzero;fill:rgb(100%,100%,100%);fill-opacity:1;" d="M 0 0 L 37.5 0 L 37.5 45 L 0 45 Z M 0 0 "/><path style=" stroke:none;fill-rule:nonzero;fill:rgb(100%,100%,100%);fill-opacity:1;" d="M 0 0 L 37.5 0 L 37.5 37.5 L 0 37.5 Z M 0 0 "/><path style=" stroke:none;fill-rule:nonzero;fill:rgb(4.708862%,13.729858%,21.569824%);fill-opacity:1;" d="M 0 0 L 37.5 0 L 37.5 37.5 L 0 37.5 Z M 0 0 "/></g><g style="fill:rgb(100%,100%,100%);fill-opacity:1;"><g transform="translate(3.273095, 17.553193)"><path style="stroke:none;" d="M 1.546875 -2.433594 C 1.292969 -2.433594 1.097656 -2.363281 0.9375 -2.125 L 0.9375 -2.382812 L 0.230469 -2.382812 L 0.230469 0.824219 L 0.9375 0.824219 L 0.9375 -0.257812 C 1.097656 -0.015625 1.292969 0.0507812 1.546875 0.0507812 C 2.15625 0.0507812 2.582031 -0.460938 2.582031 -1.1875 C 2.582031 -1.917969 2.15625 -2.433594 1.546875 -2.433594 Z M 1.347656 -1.832031 C 1.664062 -1.832031 1.867188 -1.566406 1.867188 -1.1875 C 1.867188 -0.816406 1.664062 -0.550781 1.347656 -0.550781 C 1.039062 -0.550781 0.828125 -0.804688 0.828125 -1.1875 C 0.828125 -1.574219 1.039062 -1.832031 1.347656 -1.832031 Z M 1.347656 -1.832031 "/></g></g><g style="fill:rgb(100%,100%,100%);fill-opacity:1;"><g transform="translate(5.893894, 17.553193)"><path style="stroke:none;" d="M 0.9375 0 L 0.9375 -1.003906 C 0.9375 -1.328125 0.992188 -1.515625 1.113281 -1.632812 C 1.195312 -1.714844 1.320312 -1.761719 1.515625 -1.761719 L 1.652344 -1.761719 L 1.652344 -2.433594 L 1.546875 -2.433594 C 1.292969 -2.433594 1.097656 -2.363281 0.9375 -2.125 L 0.9375 -2.382812 L 0.230469 -2.382812 L 0.230469 0 Z M 0.9375 0 "/></g></g><g style="fill:rgb(100%,100%,100%);fill-opacity:1;"><g transform="translate(7.510893, 17.553193)"><path style="stroke:none;" d="M 1.386719 0.0507812 C 2.140625 0.0507812 2.636719 -0.449219 2.636719 -1.207031 C 2.636719 -1.933594 2.132812 -2.433594 1.386719 -2.433594 C 0.636719 -2.433594 0.132812 -1.9375 0.132812 -1.207031 C 0.132812 -0.445312 0.644531 0.0507812 1.386719 0.0507812 Z M 1.386719 -0.554688 C 1.070312 -0.554688 0.859375 -0.804688 0.859375 -1.207031 C 0.859375 -1.578125 1.070312 -1.832031 1.386719 -1.832031 C 1.707031 -1.832031 1.902344 -1.574219 1.902344 -1.207031 C 1.902344 -0.816406 1.707031 -0.554688 1.386719 -0.554688 Z M 1.386719 -0.554688 "/></g></g><g style="fill:rgb(100%,100%,100%);fill-opacity:1;"><g transform="translate(10.177892, 17.553193)"><path style="stroke:none;" d="M 1.140625 0 L 1.140625 -1.835938 L 1.5 -1.835938 L 1.5 -2.382812 L 1.140625 -2.382812 L 1.140625 -2.507812 C 1.140625 -2.636719 1.226562 -2.664062 1.28125 -2.664062 L 1.5 -2.664062 L 1.5 -3.203125 L 1.109375 -3.203125 C 0.671875 -3.203125 0.429688 -2.984375 0.429688 -2.613281 L 0.429688 -2.382812 L 0.0898438 -2.382812 L 0.0898438 -1.835938 L 0.429688 -1.835938 L 0.429688 0 Z M 1.140625 0 "/></g></g><g style="fill:rgb(100%,100%,100%);fill-opacity:1;"><g transform="translate(11.660492, 17.553193)"><path style="stroke:none;" d="M 1.378906 0.0507812 C 2.050781 0.0507812 2.414062 -0.351562 2.550781 -0.824219 L 1.839844 -0.824219 C 1.78125 -0.675781 1.628906 -0.554688 1.414062 -0.554688 C 1.238281 -0.554688 1.097656 -0.609375 0.996094 -0.734375 C 0.9375 -0.804688 0.890625 -0.925781 0.875 -1.042969 L 2.585938 -1.042969 L 2.585938 -1.164062 C 2.585938 -2.082031 1.980469 -2.433594 1.355469 -2.433594 C 0.496094 -2.433594 0.132812 -1.777344 0.132812 -1.171875 C 0.132812 -0.464844 0.621094 0.0507812 1.378906 0.0507812 Z M 0.894531 -1.542969 C 0.902344 -1.597656 0.925781 -1.675781 1.003906 -1.753906 C 1.105469 -1.855469 1.238281 -1.894531 1.382812 -1.894531 C 1.523438 -1.894531 1.660156 -1.855469 1.761719 -1.753906 C 1.835938 -1.679688 1.859375 -1.597656 1.875 -1.542969 Z M 0.894531 -1.542969 "/></g></g><g style="fill:rgb(100%,100%,100%);fill-opacity:1;"><g transform="translate(14.277092, 17.553193)"><path style="stroke:none;" d="M 1.300781 0.0507812 C 1.9375 0.0507812 2.324219 -0.269531 2.324219 -0.742188 C 2.324219 -1.296875 1.800781 -1.394531 1.386719 -1.46875 C 1.113281 -1.519531 0.886719 -1.5625 0.886719 -1.722656 C 0.886719 -1.832031 1 -1.902344 1.171875 -1.902344 C 1.351562 -1.902344 1.53125 -1.820312 1.601562 -1.59375 L 2.269531 -1.59375 C 2.179688 -2.132812 1.753906 -2.433594 1.175781 -2.433594 C 0.679688 -2.433594 0.21875 -2.230469 0.21875 -1.707031 C 0.21875 -1.140625 0.730469 -1.039062 1.136719 -0.957031 C 1.40625 -0.902344 1.628906 -0.855469 1.628906 -0.695312 C 1.628906 -0.5625 1.484375 -0.484375 1.292969 -0.484375 C 1.09375 -0.484375 0.886719 -0.582031 0.804688 -0.824219 L 0.121094 -0.824219 C 0.203125 -0.160156 0.800781 0.0507812 1.300781 0.0507812 Z M 1.300781 0.0507812 "/></g></g><g style="fill:rgb(100%,100%,100%);fill-opacity:1;"><g transform="translate(16.641691, 17.553193)"><path style="stroke:none;" d="M 1.300781 0.0507812 C 1.9375 0.0507812 2.324219 -0.269531 2.324219 -0.742188 C 2.324219 -1.296875 1.800781 -1.394531 1.386719 -1.46875 C 1.113281 -1.519531 0.886719 -1.5625 0.886719 -1.722656 C 0.886719 -1.832031 1 -1.902344 1.171875 -1.902344 C 1.351562 -1.902344 1.53125 -1.820312 1.601562 -1.59375 L 2.269531 -1.59375 C 2.179688 -2.132812 1.753906 -2.433594 1.175781 -2.433594 C 0.679688 -2.433594 0.21875 -2.230469 0.21875 -1.707031 C 0.21875 -1.140625 0.730469 -1.039062 1.136719 -0.957031 C 1.40625 -0.902344 1.628906 -0.855469 1.628906 -0.695312 C 1.628906 -0.5625 1.484375 -0.484375 1.292969 -0.484375 C 1.09375 -0.484375 0.886719 -0.582031 0.804688 -0.824219 L 0.121094 -0.824219 C 0.203125 -0.160156 0.800781 0.0507812 1.300781 0.0507812 Z M 1.300781 0.0507812 "/></g></g><g style="fill:rgb(100%,100%,100%);fill-opacity:1;"><g transform="translate(19.006289, 17.553193)"><path style="stroke:none;" d="M 0.582031 -2.546875 C 0.800781 -2.546875 0.984375 -2.679688 0.984375 -2.90625 C 0.984375 -3.128906 0.800781 -3.273438 0.582031 -3.273438 C 0.367188 -3.273438 0.183594 -3.128906 0.183594 -2.90625 C 0.183594 -2.679688 0.367188 -2.546875 0.582031 -2.546875 Z M 0.9375 0 L 0.9375 -2.382812 L 0.230469 -2.382812 L 0.230469 0 Z M 0.9375 0 "/></g></g><g style="fill:rgb(100%,100%,100%);fill-opacity:1;"><g transform="translate(20.068888, 17.553193)"><path style="stroke:none;" d="M 1.386719 0.0507812 C 2.140625 0.0507812 2.636719 -0.449219 2.636719 -1.207031 C 2.636719 -1.933594 2.132812 -2.433594 1.386719 -2.433594 C 0.636719 -2.433594 0.132812 -1.9375 0.132812 -1.207031 C 0.132812 -0.445312 0.644531 0.0507812 1.386719 0.0507812 Z M 1.386719 -0.554688 C 1.070312 -0.554688 0.859375 -0.804688 0.859375 -1.207031 C 0.859375 -1.578125 1.070312 -1.832031 1.386719 -1.832031 C 1.707031 -1.832031 1.902344 -1.574219 1.902344 -1.207031 C 1.902344 -0.816406 1.707031 -0.554688 1.386719 -0.554688 Z M 1.386719 -0.554688 "/></g></g><g style="fill:rgb(100%,100%,100%);fill-opacity:1;"><g transform="translate(22.735886, 17.553193)"><path style="stroke:none;" d="M 0.9375 0 L 0.9375 -1.339844 C 0.9375 -1.546875 0.964844 -1.664062 1.023438 -1.742188 C 1.085938 -1.832031 1.191406 -1.863281 1.339844 -1.863281 C 1.457031 -1.863281 1.542969 -1.839844 1.601562 -1.777344 C 1.671875 -1.699219 1.699219 -1.574219 1.699219 -1.339844 L 1.699219 0 L 2.40625 0 L 2.40625 -1.332031 C 2.40625 -1.625 2.40625 -1.8125 2.3125 -2.019531 C 2.21875 -2.238281 2.015625 -2.433594 1.546875 -2.433594 C 1.292969 -2.433594 1.097656 -2.363281 0.9375 -2.125 L 0.9375 -2.382812 L 0.230469 -2.382812 L 0.230469 0 Z M 0.9375 0 "/></g></g><g style="fill:rgb(100%,100%,100%);fill-opacity:1;"><g transform="translate(25.251687, 17.553193)"><path style="stroke:none;" d="M 0.917969 0.0507812 C 1.117188 0.0507812 1.304688 0.0195312 1.445312 -0.0742188 C 1.519531 -0.125 1.574219 -0.199219 1.613281 -0.289062 L 1.613281 0 L 2.320312 0 L 2.320312 -1.128906 C 2.320312 -1.570312 2.320312 -1.945312 2.023438 -2.195312 C 1.835938 -2.359375 1.5625 -2.433594 1.285156 -2.433594 C 0.804688 -2.433594 0.316406 -2.183594 0.226562 -1.585938 L 0.929688 -1.585938 C 0.960938 -1.789062 1.117188 -1.902344 1.28125 -1.902344 C 1.386719 -1.902344 1.464844 -1.878906 1.519531 -1.820312 C 1.574219 -1.753906 1.609375 -1.664062 1.617188 -1.542969 L 1 -1.433594 C 0.820312 -1.398438 0.605469 -1.351562 0.4375 -1.242188 C 0.265625 -1.128906 0.136719 -0.953125 0.136719 -0.667969 C 0.136719 -0.1875 0.492188 0.0507812 0.917969 0.0507812 Z M 1.125 -0.484375 C 0.972656 -0.484375 0.84375 -0.542969 0.84375 -0.691406 C 0.84375 -0.761719 0.871094 -0.804688 0.90625 -0.84375 C 0.964844 -0.898438 1.042969 -0.929688 1.195312 -0.957031 L 1.628906 -1.042969 C 1.621094 -0.78125 1.574219 -0.628906 1.382812 -0.542969 C 1.296875 -0.503906 1.207031 -0.484375 1.125 -0.484375 Z M 1.125 -0.484375 "/></g></g><g style="fill:rgb(100%,100%,100%);fill-opacity:1;"><g transform="translate(27.670885, 17.553193)"><path style="stroke:none;" d="M 1.238281 0 L 1.238281 -0.570312 L 1.0625 -0.570312 C 1.007812 -0.570312 0.925781 -0.589844 0.925781 -0.71875 L 0.925781 -3.203125 L 0.21875 -3.203125 L 0.21875 -0.472656 C 0.21875 -0.171875 0.414062 0 0.765625 0 Z M 1.238281 0 "/></g></g><g style="fill:rgb(100%,100%,100%);fill-opacity:1;"><g transform="translate(28.901484, 17.553193)"><path style="stroke:none;" d="M 1.378906 0.0507812 C 2.050781 0.0507812 2.414062 -0.351562 2.550781 -0.824219 L 1.839844 -0.824219 C 1.78125 -0.675781 1.628906 -0.554688 1.414062 -0.554688 C 1.238281 -0.554688 1.097656 -0.609375 0.996094 -0.734375 C 0.9375 -0.804688 0.890625 -0.925781 0.875 -1.042969 L 2.585938 -1.042969 L 2.585938 -1.164062 C 2.585938 -2.082031 1.980469 -2.433594 1.355469 -2.433594 C 0.496094 -2.433594 0.132812 -1.777344 0.132812 -1.171875 C 0.132812 -0.464844 0.621094 0.0507812 1.378906 0.0507812 Z M 0.894531 -1.542969 C 0.902344 -1.597656 0.925781 -1.675781 1.003906 -1.753906 C 1.105469 -1.855469 1.238281 -1.894531 1.382812 -1.894531 C 1.523438 -1.894531 1.660156 -1.855469 1.761719 -1.753906 C 1.835938 -1.679688 1.859375 -1.597656 1.875 -1.542969 Z M 0.894531 -1.542969 "/></g></g><g style="fill:rgb(100%,100%,100%);fill-opacity:1;"><g transform="translate(31.518084, 17.553193)"><path style="stroke:none;" d="M 1.179688 0.0507812 C 1.433594 0.0507812 1.628906 -0.015625 1.789062 -0.257812 L 1.789062 0 L 2.496094 0 L 2.496094 -3.203125 L 1.789062 -3.203125 L 1.789062 -2.125 C 1.628906 -2.363281 1.433594 -2.433594 1.179688 -2.433594 C 0.570312 -2.433594 0.144531 -1.917969 0.144531 -1.191406 C 0.144531 -0.460938 0.570312 0.0507812 1.179688 0.0507812 Z M 1.378906 -0.550781 C 1.0625 -0.550781 0.855469 -0.816406 0.855469 -1.191406 C 0.855469 -1.566406 1.0625 -1.832031 1.378906 -1.832031 C 1.6875 -1.832031 1.898438 -1.574219 1.898438 -1.191406 C 1.898438 -0.804688 1.6875 -0.550781 1.378906 -0.550781 Z M 1.378906 -0.550781 "/></g></g><g style="fill:rgb(100%,34.118652%,34.118652%);fill-opacity:1;"><g transform="translate(3.273095, 19.748195)"><path style="stroke:none;" d="M 0.523438 0 L 0.714844 -0.777344 L 0.90625 0 L 1.136719 0 L 1.40625 -0.992188 L 1.234375 -0.992188 L 1.019531 -0.167969 L 0.8125 -0.992188 L 0.617188 -0.992188 L 0.410156 -0.167969 L 0.195312 -0.992188 L 0.0195312 -0.992188 L 0.292969 0 Z M 0.523438 0 "/></g></g><g style="fill:rgb(100%,34.118652%,34.118652%);fill-opacity:1;"><g transform="translate(4.702657, 19.748195)"><path style="stroke:none;" d="M 0.75 0 L 0.75 -0.148438 L 0.257812 -0.148438 L 0.257812 -0.421875 L 0.695312 -0.421875 L 0.695312 -0.570312 L 0.257812 -0.570312 L 0.257812 -0.84375 L 0.75 -0.84375 L 0.75 -0.992188 L 0.09375 -0.992188 L 0.09375 0 Z M 0.75 0 "/></g></g><g style="fill:rgb(100%,34.118652%,34.118652%);fill-opacity:1;"><g transform="translate(5.50711, 19.748195)"><path style="stroke:none;" d=""/></g></g><g style="fill:rgb(100%,34.118652%,34.118652%);fill-opacity:1;"><g transform="translate(5.860602, 19.748195)"><path style="stroke:none;" d="M 0.257812 0 L 0.257812 -0.421875 L 0.707031 -0.421875 L 0.707031 0 L 0.871094 0 L 0.871094 -0.992188 L 0.707031 -0.992188 L 0.707031 -0.570312 L 0.257812 -0.570312 L 0.257812 -0.992188 L 0.09375 -0.992188 L 0.09375 0 Z M 0.257812 0 "/></g></g><g style="fill:rgb(100%,34.118652%,34.118652%);fill-opacity:1;"><g transform="translate(6.826206, 19.748195)"><path style="stroke:none;" d="M 0.75 0 L 0.75 -0.148438 L 0.257812 -0.148438 L 0.257812 -0.421875 L 0.695312 -0.421875 L 0.695312 -0.570312 L 0.257812 -0.570312 L 0.257812 -0.84375 L 0.75 -0.84375 L 0.75 -0.992188 L 0.09375 -0.992188 L 0.09375 0 Z M 0.75 0 "/></g></g><g style="fill:rgb(100%,34.118652%,34.118652%);fill-opacity:1;"><g transform="translate(7.630659, 19.748195)"><path style="stroke:none;" d="M 0.6875 0 L 0.6875 -0.148438 L 0.257812 -0.148438 L 0.257812 -0.992188 L 0.09375 -0.992188 L 0.09375 0 Z M 0.6875 0 "/></g></g><g style="fill:rgb(100%,34.118652%,34.118652%);fill-opacity:1;"><g transform="translate(8.332444, 19.748195)"><path style="stroke:none;" d="M 0.257812 0 L 0.257812 -0.402344 L 0.5 -0.402344 C 0.6875 -0.402344 0.816406 -0.515625 0.816406 -0.703125 C 0.816406 -0.902344 0.6875 -0.992188 0.5 -0.992188 L 0.09375 -0.992188 L 0.09375 0 Z M 0.257812 -0.84375 L 0.480469 -0.84375 C 0.589844 -0.84375 0.652344 -0.792969 0.652344 -0.695312 C 0.652344 -0.601562 0.589844 -0.546875 0.480469 -0.546875 L 0.257812 -0.546875 Z M 0.257812 -0.84375 "/></g></g><g style="fill:rgb(100%,34.118652%,34.118652%);fill-opacity:1;"><g transform="translate(9.186282, 19.748195)"><path style="stroke:none;" d=""/></g></g><g style="fill:rgb(100%,34.118652%,34.118652%);fill-opacity:1;"><g transform="translate(9.539774, 19.748195)"><path style="stroke:none;" d="M 0.0703125 0.222656 C 0.234375 0.210938 0.292969 0.09375 0.292969 -0.0117188 C 0.292969 -0.109375 0.246094 -0.175781 0.164062 -0.175781 C 0.101562 -0.175781 0.0625 -0.136719 0.0625 -0.078125 C 0.0625 -0.0195312 0.101562 0.0117188 0.144531 0.0117188 C 0.171875 0.0117188 0.191406 0.00390625 0.207031 -0.015625 C 0.207031 -0.00390625 0.207031 0.0117188 0.207031 0.0234375 C 0.199219 0.0898438 0.152344 0.136719 0.0703125 0.140625 Z M 0.0703125 0.222656 "/></g></g><g style="fill:rgb(100%,34.118652%,34.118652%);fill-opacity:1;"><g transform="translate(9.893266, 19.748195)"><path style="stroke:none;" d="M 0.535156 0 L 0.535156 -0.382812 L 0.898438 -0.992188 L 0.707031 -0.992188 L 0.449219 -0.546875 L 0.191406 -0.992188 L 0 -0.992188 L 0.363281 -0.382812 L 0.363281 0 Z M 0.535156 0 "/></g></g><g style="fill:rgb(100%,34.118652%,34.118652%);fill-opacity:1;"><g transform="translate(10.792591, 19.748195)"><path style="stroke:none;" d="M 0.53125 0.015625 C 0.851562 0.015625 1.003906 -0.222656 1.003906 -0.496094 C 1.003906 -0.769531 0.851562 -1.007812 0.53125 -1.007812 C 0.207031 -1.007812 0.0546875 -0.769531 0.0546875 -0.496094 C 0.0546875 -0.222656 0.207031 0.015625 0.53125 0.015625 Z M 0.53125 -0.132812 C 0.335938 -0.132812 0.226562 -0.28125 0.226562 -0.496094 C 0.226562 -0.710938 0.335938 -0.859375 0.53125 -0.859375 C 0.726562 -0.859375 0.835938 -0.710938 0.835938 -0.496094 C 0.835938 -0.28125 0.726562 -0.132812 0.53125 -0.132812 Z M 0.53125 -0.132812 "/></g></g><g style="fill:rgb(100%,34.118652%,34.118652%);fill-opacity:1;"><g transform="translate(11.854365, 19.748195)"><path style="stroke:none;" d="M 0.472656 0.015625 C 0.746094 0.015625 0.863281 -0.132812 0.863281 -0.355469 L 0.863281 -0.992188 L 0.695312 -0.992188 L 0.695312 -0.355469 C 0.695312 -0.222656 0.636719 -0.128906 0.472656 -0.128906 C 0.308594 -0.128906 0.25 -0.222656 0.25 -0.355469 L 0.25 -0.992188 L 0.0820312 -0.992188 L 0.0820312 -0.355469 C 0.0820312 -0.132812 0.199219 0.015625 0.472656 0.015625 Z M 0.472656 0.015625 "/></g></g><g style="fill:rgb(100%,34.118652%,34.118652%);fill-opacity:1;"><g transform="translate(12.800476, 19.748195)"><path style="stroke:none;" d=""/></g></g><g style="fill:rgb(100%,34.118652%,34.118652%);fill-opacity:1;"><g transform="translate(13.153968, 19.748195)"><path style="stroke:none;" d="M 0.472656 0.015625 C 0.707031 0.015625 0.839844 -0.101562 0.839844 -0.285156 C 0.839844 -0.507812 0.648438 -0.546875 0.484375 -0.582031 C 0.359375 -0.609375 0.25 -0.636719 0.25 -0.738281 C 0.25 -0.820312 0.316406 -0.867188 0.421875 -0.867188 C 0.527344 -0.867188 0.617188 -0.820312 0.644531 -0.703125 L 0.8125 -0.703125 C 0.777344 -0.914062 0.609375 -1.007812 0.425781 -1.007812 C 0.230469 -1.007812 0.0820312 -0.90625 0.0820312 -0.722656 C 0.0820312 -0.519531 0.261719 -0.480469 0.421875 -0.445312 C 0.550781 -0.417969 0.671875 -0.390625 0.671875 -0.273438 C 0.671875 -0.171875 0.59375 -0.125 0.476562 -0.125 C 0.367188 -0.125 0.25 -0.167969 0.21875 -0.316406 L 0.0507812 -0.316406 C 0.078125 -0.0703125 0.28125 0.015625 0.472656 0.015625 Z M 0.472656 0.015625 "/></g></g><g style="fill:rgb(100%,34.118652%,34.118652%);fill-opacity:1;"><g transform="translate(14.049393, 19.748195)"><path style="stroke:none;" d="M 0.75 0 L 0.75 -0.148438 L 0.257812 -0.148438 L 0.257812 -0.421875 L 0.695312 -0.421875 L 0.695312 -0.570312 L 0.257812 -0.570312 L 0.257812 -0.84375 L 0.75 -0.84375 L 0.75 -0.992188 L 0.09375 -0.992188 L 0.09375 0 Z M 0.75 0 "/></g></g><g style="fill:rgb(100%,34.118652%,34.118652%);fill-opacity:1;"><g transform="translate(14.853847, 19.748195)"><path style="stroke:none;" d="M 0.6875 0 L 0.6875 -0.148438 L 0.257812 -0.148438 L 0.257812 -0.992188 L 0.09375 -0.992188 L 0.09375 0 Z M 0.6875 0 "/></g></g><g style="fill:rgb(100%,34.118652%,34.118652%);fill-opacity:1;"><g transform="translate(15.555631, 19.748195)"><path style="stroke:none;" d="M 0.75 0 L 0.75 -0.148438 L 0.257812 -0.148438 L 0.257812 -0.421875 L 0.695312 -0.421875 L 0.695312 -0.570312 L 0.257812 -0.570312 L 0.257812 -0.84375 L 0.75 -0.84375 L 0.75 -0.992188 L 0.09375 -0.992188 L 0.09375 0 Z M 0.75 0 "/></g></g><g style="fill:rgb(100%,34.118652%,34.118652%);fill-opacity:1;"><g transform="translate(16.360085, 19.748195)"><path style="stroke:none;" d="M 0.527344 0.015625 C 0.765625 0.015625 0.914062 -0.113281 0.941406 -0.316406 L 0.761719 -0.316406 C 0.742188 -0.191406 0.648438 -0.128906 0.523438 -0.128906 C 0.328125 -0.128906 0.226562 -0.28125 0.226562 -0.496094 C 0.226562 -0.710938 0.328125 -0.859375 0.523438 -0.859375 C 0.648438 -0.859375 0.742188 -0.800781 0.761719 -0.691406 L 0.941406 -0.691406 C 0.914062 -0.878906 0.765625 -1.007812 0.527344 -1.007812 C 0.203125 -1.007812 0.0546875 -0.769531 0.0546875 -0.496094 C 0.0546875 -0.226562 0.203125 0.015625 0.527344 0.015625 Z M 0.527344 0.015625 "/></g></g><g style="fill:rgb(100%,34.118652%,34.118652%);fill-opacity:1;"><g transform="translate(17.347782, 19.748195)"><path style="stroke:none;" d="M 0.492188 0 L 0.492188 -0.84375 L 0.808594 -0.84375 L 0.808594 -0.992188 L 0.015625 -0.992188 L 0.015625 -0.84375 L 0.328125 -0.84375 L 0.328125 0 Z M 0.492188 0 "/></g></g></g></svg>