<?xml version="1.0" encoding="UTF-8"?><svg xmlns="http://www.w3.org/2000/svg" xmlns:xlink="http://www.w3.org/1999/xlink" contentScriptType="text/ecmascript" width="375pt" zoomAndPan="magnify" contentStyleType="text/css" viewBox="0 0 375 374.999991" height="374.999991pt" preserveAspectRatio="xMidYMid meet" version="1.2"><defs><g/><clipPath xml:id="clip1" id="clip1"><path d="M 0 100 L 50.730469 100 L 50.730469 130 L 0 130 Z M 0 100 "/></clipPath><clipPath xml:id="clip2" id="clip2"><path d="M 0 101 L 50.730469 101 L 50.730469 130 L 0 130 Z M 0 101 "/></clipPath><clipPath xml:id="clip3" id="clip3"><path d="M 33 66.964844 L 41 66.964844 L 41 74 L 33 74 Z M 33 66.964844 "/></clipPath><clipPath xml:id="clip4" id="clip4"><path d="M 3 168 L 41 168 L 41 216.964844 L 3 216.964844 Z M 3 168 "/></clipPath></defs><g xml:id="surface1" id="surface1"><rect x="0" width="375" y="0" height="374.999991" style="fill:rgb(100%,100%,100%);fill-opacity:1;stroke:none;"/><rect x="0" width="375" y="0" height="374.999991" style="fill:rgb(100%,100%,100%);fill-opacity:1;stroke:none;"/><rect x="0" width="375" y="0" height="374.999991" style="fill:rgb(100%,100%,100%);fill-opacity:1;stroke:none;"/><path style=" stroke:none;fill-rule:nonzero;fill:rgb(98.429871%,74.899292%,20.779419%);fill-opacity:1;" d="M 31.71875 107.199219 C 31.371094 106.304688 31.210938 105.496094 31.113281 104.621094 C 31.019531 103.761719 31.011719 102.890625 31.09375 102.027344 C 31.261719 100.296875 31.796875 98.605469 32.621094 97.089844 C 33.433594 95.5625 34.535156 94.226562 35.746094 93.0625 C 36.054688 92.773438 36.367188 92.492188 36.6875 92.226562 L 37.636719 91.46875 C 38.199219 91.003906 38.769531 90.488281 39.28125 89.949219 C 41.371094 87.816406 42.871094 85.097656 43.308594 82.128906 C 43.523438 80.648438 43.492188 79.117188 43.164062 77.644531 C 42.851562 76.164062 42.222656 74.738281 41.261719 73.5625 L 41.261719 73.554688 C 41.132812 73.402344 41.15625 73.179688 41.308594 73.054688 C 41.441406 72.941406 41.636719 72.949219 41.769531 73.0625 C 43.023438 74.179688 43.859375 75.703125 44.40625 77.292969 C 44.925781 78.898438 45.117188 80.617188 44.980469 82.316406 C 44.855469 84.019531 44.382812 85.691406 43.667969 87.238281 C 42.945312 88.78125 41.960938 90.191406 40.828125 91.4375 C 40.25 92.058594 39.65625 92.625 39 93.179688 L 38.097656 93.925781 C 37.808594 94.171875 37.539062 94.429688 37.265625 94.683594 C 36.179688 95.714844 35.25 96.882812 34.527344 98.15625 C 33.808594 99.433594 33.3125 100.824219 33.105469 102.277344 C 32.992188 102.996094 32.953125 103.734375 32.988281 104.46875 C 33.023438 105.183594 33.132812 105.964844 33.304688 106.585938 L 33.324219 106.652344 C 33.449219 107.109375 33.1875 107.578125 32.738281 107.707031 C 32.316406 107.828125 31.878906 107.597656 31.71875 107.199219 "/><g clip-rule="nonzero" clip-path="url(#clip1)"><path style=" stroke:none;fill-rule:nonzero;fill:rgb(17.649841%,23.919678%,31.369019%);fill-opacity:1;" d="M 21.359375 129.195312 L 37.914062 121.742188 L 50.652344 105.242188 L 50.066406 103.824219 L 18.515625 100.242188 L 0.046875 126.34375 L 0.71875 127.726562 L 21.359375 129.195312 "/></g><g clip-rule="nonzero" clip-path="url(#clip2)"><path style=" stroke:none;fill-rule:nonzero;fill:rgb(9.408569%,11.759949%,14.118958%);fill-opacity:1;" d="M 39.507812 121.023438 L 50.6875 105.230469 L 19.132812 101.652344 L 0.664062 127.75 L 19.757812 129.914062 L 39.507812 121.023438 "/></g><g clip-rule="nonzero" clip-path="url(#clip3)"><path style=" stroke:none;fill-rule:nonzero;fill:rgb(98.429871%,74.899292%,20.779419%);fill-opacity:1;" d="M 39.996094 73.191406 C 39.996094 73.191406 38.828125 73.800781 37.625 72.640625 C 35.960938 71.046875 36.617188 69.90625 33.542969 66.953125 C 33.542969 66.953125 37.277344 67.132812 39.398438 69.171875 C 40.199219 69.941406 41.03125 70.960938 40.863281 72.269531 L 39.996094 73.191406 "/></g><path style=" stroke:none;fill-rule:nonzero;fill:rgb(76.858521%,47.839355%,11.369324%);fill-opacity:1;" d="M 38.871094 73.324219 C 39.429688 72.535156 40.070312 71.921875 40.824219 71.316406 C 41.542969 72.660156 42.296875 73.679688 43.078125 74.433594 C 42.609375 74.808594 42.605469 74.8125 42.257812 75.308594 C 41.3125 74.625 40.242188 73.820312 38.871094 73.324219 "/><path style=" stroke:none;fill-rule:nonzero;fill:rgb(97.24884%,61.178589%,14.898682%);fill-opacity:1;" d="M 40.035156 74.605469 C 39.441406 74.03125 39.417969 73.078125 39.984375 72.472656 C 40.550781 71.871094 41.496094 71.847656 42.09375 72.421875 C 42.691406 72.996094 42.710938 73.949219 42.144531 74.550781 C 41.578125 75.152344 40.632812 75.175781 40.035156 74.605469 "/><path style=" stroke:none;fill-rule:nonzero;fill:rgb(17.649841%,23.919678%,31.369019%);fill-opacity:1;" d="M 47.476562 120.164062 C 47.476562 120.164062 38.101562 125.972656 31.3125 129.03125 C 24.347656 132.167969 13.808594 135.324219 13.808594 135.324219 L 8.664062 123.648438 C 8.664062 123.648438 14.871094 117.625 24.613281 113.238281 C 32.21875 109.8125 42.328125 108.488281 42.328125 108.488281 L 47.476562 120.164062 "/><path style=" stroke:none;fill-rule:nonzero;fill:rgb(9.408569%,11.759949%,14.118958%);fill-opacity:1;" d="M 47.320312 120.347656 C 47.917969 121.707031 40.910156 126.1875 31.667969 130.347656 C 22.421875 134.511719 14.441406 136.78125 13.84375 135.417969 C 13.242188 134.058594 20.25 129.582031 29.492188 125.417969 C 38.738281 121.257812 46.71875 118.984375 47.320312 120.347656 "/><path style=" stroke:none;fill-rule:nonzero;fill:rgb(94.898987%,59.999084%,41.178894%);fill-opacity:1;" d="M 10.539062 174.527344 C 10.539062 174.527344 12.074219 169.519531 13.273438 166.507812 C 13.792969 165.203125 13.285156 163.105469 13.296875 161.929688 C 13.335938 158.699219 14.753906 156.757812 14.28125 154.351562 C 13.625 151.003906 12.820312 147.234375 14.308594 146.722656 C 15.75 146.222656 15.925781 150.753906 16.324219 152.414062 C 16.496094 153.132812 16.679688 153.660156 16.925781 153.679688 C 17.734375 153.75 18.109375 152.828125 18.316406 151.503906 C 18.78125 148.542969 20.242188 140.621094 21.78125 140.691406 C 23.582031 140.769531 21.472656 148.113281 21.253906 151.371094 C 21.15625 152.847656 21.164062 153.972656 21.566406 154.074219 C 22.132812 154.21875 22.769531 153.105469 23.460938 151.546875 C 24.933594 148.238281 27.046875 139.640625 29.386719 140.894531 C 31.824219 142.199219 27.613281 149.097656 26.394531 152.429688 C 25.894531 153.796875 25.667969 154.855469 26.160156 155.148438 C 26.835938 155.554688 27.703125 154.464844 28.804688 152.980469 C 31.042969 149.960938 33.929688 145.730469 35.246094 146.714844 C 36.59375 147.722656 33.574219 151.929688 30.960938 155.328125 C 29.238281 157.566406 27.695312 159.683594 27.699219 160.988281 C 27.699219 163.910156 30.472656 163.621094 31.601562 163.324219 C 32.945312 162.96875 35.261719 163.121094 35.308594 163.972656 C 35.398438 165.617188 32.847656 166.464844 30.585938 166.675781 C 28.632812 166.859375 24.488281 167.335938 22.882812 170.660156 C 22.214844 172.042969 21.402344 174.621094 20.4375 177.378906 C 20.4375 177.378906 17.503906 176.726562 15.875 176.214844 C 13.925781 175.609375 10.539062 174.527344 10.539062 174.527344 "/><g clip-rule="nonzero" clip-path="url(#clip4)"><path style=" stroke:none;fill-rule:nonzero;fill:rgb(15.689087%,21.569824%,27.839661%);fill-opacity:1;" d="M 29.585938 216.933594 C 29.550781 204.351562 32.09375 190.386719 40.679688 178.761719 C 40.679688 178.761719 26.882812 168.136719 10.378906 168.351562 C 10.378906 168.351562 2.800781 191.636719 3.515625 216.933594 L 29.585938 216.933594 "/></g><g style="fill:rgb(1.959229%,21.569824%,48.239136%);fill-opacity:1;"><g transform="translate(37.500002, 177.757738)"><path style="stroke:none;" d="M 27.71875 -21.203125 C 29.988281 -18.734375 31.125 -15.707031 31.125 -12.125 C 31.125 -8.539062 29.988281 -5.503906 27.71875 -3.015625 C 25.457031 -0.535156 22.582031 0.703125 19.09375 0.703125 C 15.882812 0.703125 13.242188 -0.300781 11.171875 -2.3125 L 11.171875 12.265625 L 2.828125 12.265625 L 2.828125 -24.1875 L 11.078125 -24.1875 L 11.078125 -21.453125 L 11.171875 -21.453125 C 13.242188 -23.753906 15.882812 -24.90625 19.09375 -24.90625 C 22.582031 -24.90625 25.457031 -23.671875 27.71875 -21.203125 Z M 20.625 -8.015625 C 21.707031 -9.085938 22.25 -10.457031 22.25 -12.125 C 22.25 -13.789062 21.726562 -15.148438 20.6875 -16.203125 C 19.65625 -17.253906 18.289062 -17.78125 16.59375 -17.78125 C 14.957031 -17.78125 13.613281 -17.242188 12.5625 -16.171875 C 11.507812 -15.109375 10.984375 -13.757812 10.984375 -12.125 C 10.984375 -10.457031 11.523438 -9.085938 12.609375 -8.015625 C 13.691406 -6.941406 15.019531 -6.40625 16.59375 -6.40625 C 18.195312 -6.40625 19.539062 -6.941406 20.625 -8.015625 Z M 20.625 -8.015625 "/></g></g><g style="fill:rgb(1.959229%,21.569824%,48.239136%);fill-opacity:1;"><g transform="translate(67.349719, 177.757738)"><path style="stroke:none;" d="M 2.828125 0 L 2.828125 -24.1875 L 11.171875 -24.1875 L 11.171875 -20.703125 L 11.265625 -20.703125 C 11.328125 -20.828125 11.429688 -20.984375 11.578125 -21.171875 C 11.722656 -21.359375 12.03125 -21.6875 12.5 -22.15625 C 12.96875 -22.632812 13.46875 -23.0625 14 -23.4375 C 14.539062 -23.8125 15.234375 -24.148438 16.078125 -24.453125 C 16.929688 -24.753906 17.796875 -24.90625 18.671875 -24.90625 C 19.585938 -24.90625 20.484375 -24.773438 21.359375 -24.515625 C 22.242188 -24.265625 22.890625 -24.015625 23.296875 -23.765625 L 23.953125 -23.390625 L 20.46875 -16.3125 C 19.425781 -17.195312 17.976562 -17.640625 16.125 -17.640625 C 15.125 -17.640625 14.257812 -17.414062 13.53125 -16.96875 C 12.8125 -16.53125 12.300781 -16 12 -15.375 C 11.695312 -14.75 11.484375 -14.210938 11.359375 -13.765625 C 11.234375 -13.328125 11.171875 -12.984375 11.171875 -12.734375 L 11.171875 0 Z M 2.828125 0 "/></g></g><g style="fill:rgb(1.959229%,21.569824%,48.239136%);fill-opacity:1;"><g transform="translate(88.475525, 177.757738)"><path style="stroke:none;" d="M 5.109375 -2.875 C 2.421875 -5.257812 1.078125 -8.320312 1.078125 -12.0625 C 1.078125 -15.8125 2.476562 -18.890625 5.28125 -21.296875 C 8.082031 -23.703125 11.539062 -24.90625 15.65625 -24.90625 C 19.707031 -24.90625 23.125 -23.691406 25.90625 -21.265625 C 28.6875 -18.847656 30.078125 -15.78125 30.078125 -12.0625 C 30.078125 -8.351562 28.71875 -5.296875 26 -2.890625 C 23.28125 -0.492188 19.832031 0.703125 15.65625 0.703125 C 11.3125 0.703125 7.796875 -0.488281 5.109375 -2.875 Z M 11.578125 -16.171875 C 10.492188 -15.109375 9.953125 -13.742188 9.953125 -12.078125 C 9.953125 -10.410156 10.46875 -9.046875 11.5 -7.984375 C 12.539062 -6.929688 13.910156 -6.40625 15.609375 -6.40625 C 17.242188 -6.40625 18.585938 -6.941406 19.640625 -8.015625 C 20.691406 -9.085938 21.21875 -10.441406 21.21875 -12.078125 C 21.21875 -13.742188 20.675781 -15.109375 19.59375 -16.171875 C 18.507812 -17.242188 17.179688 -17.78125 15.609375 -17.78125 C 14.003906 -17.78125 12.660156 -17.242188 11.578125 -16.171875 Z M 11.578125 -16.171875 "/></g></g><g style="fill:rgb(1.959229%,21.569824%,48.239136%);fill-opacity:1;"><g transform="translate(117.287804, 177.757738)"><path style="stroke:none;" d="M 4.25 -24.1875 L 4.25 -29.328125 C 4.28125 -32.941406 5.128906 -35.832031 6.796875 -38 C 8.460938 -40.175781 10.769531 -41.265625 13.71875 -41.265625 C 14.976562 -41.265625 16.179688 -41.082031 17.328125 -40.71875 C 18.472656 -40.351562 19.300781 -39.984375 19.8125 -39.609375 L 20.609375 -39.09375 L 17.6875 -33.203125 C 16.925781 -33.640625 16.09375 -33.859375 15.1875 -33.859375 C 14.144531 -33.859375 13.453125 -33.503906 13.109375 -32.796875 C 12.765625 -32.085938 12.59375 -30.851562 12.59375 -29.09375 L 12.59375 -24.1875 L 18.15625 -24.1875 L 18.15625 -17.828125 L 12.59375 -17.828125 L 12.59375 0 L 4.25 0 L 4.25 -17.828125 L 0.75 -17.828125 L 0.75 -24.1875 Z M 4.25 -24.1875 "/></g></g><g style="fill:rgb(1.959229%,21.569824%,48.239136%);fill-opacity:1;"><g transform="translate(132.613388, 177.757738)"><path style="stroke:none;" d="M 27.296875 -10.9375 L 9.765625 -10.9375 C 9.765625 -9.238281 10.3125 -7.976562 11.40625 -7.15625 C 12.507812 -6.34375 13.707031 -5.9375 15 -5.9375 C 16.34375 -5.9375 17.40625 -6.117188 18.1875 -6.484375 C 18.976562 -6.847656 19.878906 -7.5625 20.890625 -8.625 L 26.921875 -5.609375 C 24.410156 -1.398438 20.226562 0.703125 14.375 0.703125 C 10.726562 0.703125 7.597656 -0.546875 4.984375 -3.046875 C 2.378906 -5.546875 1.078125 -8.554688 1.078125 -12.078125 C 1.078125 -15.597656 2.378906 -18.613281 4.984375 -21.125 C 7.597656 -23.644531 10.726562 -24.90625 14.375 -24.90625 C 18.21875 -24.90625 21.335938 -23.796875 23.734375 -21.578125 C 26.140625 -19.359375 27.34375 -16.191406 27.34375 -12.078125 C 27.34375 -11.503906 27.328125 -11.125 27.296875 -10.9375 Z M 10 -15.5625 L 19.1875 -15.5625 C 19 -16.820312 18.503906 -17.785156 17.703125 -18.453125 C 16.898438 -19.128906 15.875 -19.46875 14.625 -19.46875 C 13.238281 -19.46875 12.132812 -19.109375 11.3125 -18.390625 C 10.5 -17.671875 10.0625 -16.726562 10 -15.5625 Z M 10 -15.5625 "/></g></g><g style="fill:rgb(1.959229%,21.569824%,48.239136%);fill-opacity:1;"><g transform="translate(158.690603, 177.757738)"><path style="stroke:none;" d="M 13.34375 -24.90625 C 14.726562 -24.90625 16.09375 -24.742188 17.4375 -24.421875 C 18.789062 -24.109375 19.800781 -23.796875 20.46875 -23.484375 L 21.453125 -23.015625 L 18.71875 -17.546875 C 16.832031 -18.546875 15.039062 -19.046875 13.34375 -19.046875 C 12.40625 -19.046875 11.738281 -18.941406 11.34375 -18.734375 C 10.945312 -18.535156 10.75 -18.15625 10.75 -17.59375 C 10.75 -17.46875 10.765625 -17.335938 10.796875 -17.203125 C 10.828125 -17.078125 10.890625 -16.957031 10.984375 -16.84375 C 11.078125 -16.738281 11.160156 -16.644531 11.234375 -16.5625 C 11.316406 -16.488281 11.453125 -16.40625 11.640625 -16.3125 C 11.835938 -16.21875 11.988281 -16.144531 12.09375 -16.09375 C 12.207031 -16.050781 12.390625 -15.984375 12.640625 -15.890625 C 12.890625 -15.796875 13.078125 -15.722656 13.203125 -15.671875 C 13.328125 -15.628906 13.535156 -15.5625 13.828125 -15.46875 C 14.128906 -15.375 14.363281 -15.3125 14.53125 -15.28125 C 15.5 -15 16.34375 -14.679688 17.0625 -14.328125 C 17.789062 -13.984375 18.554688 -13.515625 19.359375 -12.921875 C 20.160156 -12.328125 20.78125 -11.570312 21.21875 -10.65625 C 21.65625 -9.75 21.875 -8.710938 21.875 -7.546875 C 21.875 -2.046875 18.054688 0.703125 10.421875 0.703125 C 8.691406 0.703125 7.046875 0.4375 5.484375 -0.09375 C 3.929688 -0.625 2.8125 -1.160156 2.125 -1.703125 L 1.078125 -2.546875 L 4.484375 -8.25 C 4.734375 -8.03125 5.0625 -7.769531 5.46875 -7.46875 C 5.875 -7.175781 6.613281 -6.769531 7.6875 -6.25 C 8.757812 -5.726562 9.6875 -5.46875 10.46875 -5.46875 C 12.195312 -5.46875 13.0625 -6.050781 13.0625 -7.21875 C 13.0625 -7.75 12.835938 -8.160156 12.390625 -8.453125 C 11.953125 -8.753906 11.207031 -9.09375 10.15625 -9.46875 C 9.101562 -9.851562 8.28125 -10.203125 7.6875 -10.515625 C 6.175781 -11.296875 4.976562 -12.179688 4.09375 -13.171875 C 3.21875 -14.171875 2.78125 -15.488281 2.78125 -17.125 C 2.78125 -19.570312 3.726562 -21.476562 5.625 -22.84375 C 7.53125 -24.21875 10.101562 -24.90625 13.34375 -24.90625 Z M 13.34375 -24.90625 "/></g></g><g style="fill:rgb(1.959229%,21.569824%,48.239136%);fill-opacity:1;"><g transform="translate(179.533463, 177.757738)"><path style="stroke:none;" d="M 13.34375 -24.90625 C 14.726562 -24.90625 16.09375 -24.742188 17.4375 -24.421875 C 18.789062 -24.109375 19.800781 -23.796875 20.46875 -23.484375 L 21.453125 -23.015625 L 18.71875 -17.546875 C 16.832031 -18.546875 15.039062 -19.046875 13.34375 -19.046875 C 12.40625 -19.046875 11.738281 -18.941406 11.34375 -18.734375 C 10.945312 -18.535156 10.75 -18.15625 10.75 -17.59375 C 10.75 -17.46875 10.765625 -17.335938 10.796875 -17.203125 C 10.828125 -17.078125 10.890625 -16.957031 10.984375 -16.84375 C 11.078125 -16.738281 11.160156 -16.644531 11.234375 -16.5625 C 11.316406 -16.488281 11.453125 -16.40625 11.640625 -16.3125 C 11.835938 -16.21875 11.988281 -16.144531 12.09375 -16.09375 C 12.207031 -16.050781 12.390625 -15.984375 12.640625 -15.890625 C 12.890625 -15.796875 13.078125 -15.722656 13.203125 -15.671875 C 13.328125 -15.628906 13.535156 -15.5625 13.828125 -15.46875 C 14.128906 -15.375 14.363281 -15.3125 14.53125 -15.28125 C 15.5 -15 16.34375 -14.679688 17.0625 -14.328125 C 17.789062 -13.984375 18.554688 -13.515625 19.359375 -12.921875 C 20.160156 -12.328125 20.78125 -11.570312 21.21875 -10.65625 C 21.65625 -9.75 21.875 -8.710938 21.875 -7.546875 C 21.875 -2.046875 18.054688 0.703125 10.421875 0.703125 C 8.691406 0.703125 7.046875 0.4375 5.484375 -0.09375 C 3.929688 -0.625 2.8125 -1.160156 2.125 -1.703125 L 1.078125 -2.546875 L 4.484375 -8.25 C 4.734375 -8.03125 5.0625 -7.769531 5.46875 -7.46875 C 5.875 -7.175781 6.613281 -6.769531 7.6875 -6.25 C 8.757812 -5.726562 9.6875 -5.46875 10.46875 -5.46875 C 12.195312 -5.46875 13.0625 -6.050781 13.0625 -7.21875 C 13.0625 -7.75 12.835938 -8.160156 12.390625 -8.453125 C 11.953125 -8.753906 11.207031 -9.09375 10.15625 -9.46875 C 9.101562 -9.851562 8.28125 -10.203125 7.6875 -10.515625 C 6.175781 -11.296875 4.976562 -12.179688 4.09375 -13.171875 C 3.21875 -14.171875 2.78125 -15.488281 2.78125 -17.125 C 2.78125 -19.570312 3.726562 -21.476562 5.625 -22.84375 C 7.53125 -24.21875 10.101562 -24.90625 13.34375 -24.90625 Z M 13.34375 -24.90625 "/></g></g><g style="fill:rgb(1.959229%,21.569824%,48.239136%);fill-opacity:1;"><g transform="translate(200.376324, 177.757738)"><path style="stroke:none;" d="M 3.625 -37.671875 C 4.601562 -38.648438 5.765625 -39.140625 7.109375 -39.140625 C 8.460938 -39.140625 9.628906 -38.648438 10.609375 -37.671875 C 11.585938 -36.703125 12.078125 -35.539062 12.078125 -34.1875 C 12.078125 -32.832031 11.585938 -31.664062 10.609375 -30.6875 C 9.628906 -29.71875 8.460938 -29.234375 7.109375 -29.234375 C 5.765625 -29.234375 4.601562 -29.71875 3.625 -30.6875 C 2.65625 -31.664062 2.171875 -32.832031 2.171875 -34.1875 C 2.171875 -35.539062 2.65625 -36.703125 3.625 -37.671875 Z M 2.828125 -24.1875 L 2.828125 0 L 11.171875 0 L 11.171875 -24.1875 Z M 2.828125 -24.1875 "/></g></g><g style="fill:rgb(1.959229%,21.569824%,48.239136%);fill-opacity:1;"><g transform="translate(212.259502, 177.757738)"><path style="stroke:none;" d="M 5.109375 -2.875 C 2.421875 -5.257812 1.078125 -8.320312 1.078125 -12.0625 C 1.078125 -15.8125 2.476562 -18.890625 5.28125 -21.296875 C 8.082031 -23.703125 11.539062 -24.90625 15.65625 -24.90625 C 19.707031 -24.90625 23.125 -23.691406 25.90625 -21.265625 C 28.6875 -18.847656 30.078125 -15.78125 30.078125 -12.0625 C 30.078125 -8.351562 28.71875 -5.296875 26 -2.890625 C 23.28125 -0.492188 19.832031 0.703125 15.65625 0.703125 C 11.3125 0.703125 7.796875 -0.488281 5.109375 -2.875 Z M 11.578125 -16.171875 C 10.492188 -15.109375 9.953125 -13.742188 9.953125 -12.078125 C 9.953125 -10.410156 10.46875 -9.046875 11.5 -7.984375 C 12.539062 -6.929688 13.910156 -6.40625 15.609375 -6.40625 C 17.242188 -6.40625 18.585938 -6.941406 19.640625 -8.015625 C 20.691406 -9.085938 21.21875 -10.441406 21.21875 -12.078125 C 21.21875 -13.742188 20.675781 -15.109375 19.59375 -16.171875 C 18.507812 -17.242188 17.179688 -17.78125 15.609375 -17.78125 C 14.003906 -17.78125 12.660156 -17.242188 11.578125 -16.171875 Z M 11.578125 -16.171875 "/></g></g><g style="fill:rgb(1.959229%,21.569824%,48.239136%);fill-opacity:1;"><g transform="translate(241.071775, 177.757738)"><path style="stroke:none;" d="M 2.828125 0 L 2.828125 -24.1875 L 11.171875 -24.1875 L 11.171875 -21.640625 L 11.265625 -21.640625 C 13.441406 -23.816406 15.753906 -24.90625 18.203125 -24.90625 C 19.398438 -24.90625 20.585938 -24.742188 21.765625 -24.421875 C 22.941406 -24.109375 24.070312 -23.617188 25.15625 -22.953125 C 26.238281 -22.296875 27.117188 -21.363281 27.796875 -20.15625 C 28.472656 -18.945312 28.8125 -17.539062 28.8125 -15.9375 L 28.8125 0 L 20.46875 0 L 20.46875 -13.671875 C 20.46875 -14.929688 20.066406 -16.03125 19.265625 -16.96875 C 18.460938 -17.914062 17.414062 -18.390625 16.125 -18.390625 C 14.863281 -18.390625 13.722656 -17.898438 12.703125 -16.921875 C 11.679688 -15.953125 11.171875 -14.867188 11.171875 -13.671875 L 11.171875 0 Z M 2.828125 0 "/></g></g><g style="fill:rgb(100%,74.119568%,34.899902%);fill-opacity:1;"><g transform="translate(269.882799, 177.757738)"><path style="stroke:none;" d="M 4.46875 -3 C 2.207031 -5.46875 1.078125 -8.492188 1.078125 -12.078125 C 1.078125 -15.660156 2.207031 -18.691406 4.46875 -21.171875 C 6.738281 -23.660156 9.617188 -24.90625 13.109375 -24.90625 C 16.316406 -24.90625 18.957031 -23.894531 21.03125 -21.875 L 21.03125 -24.1875 L 29.375 -24.1875 L 29.375 0 L 21.125 0 L 21.125 -2.734375 L 21.03125 -2.734375 C 18.957031 -0.441406 16.316406 0.703125 13.109375 0.703125 C 9.617188 0.703125 6.738281 -0.53125 4.46875 -3 Z M 11.578125 -16.171875 C 10.492188 -15.109375 9.953125 -13.742188 9.953125 -12.078125 C 9.953125 -10.410156 10.46875 -9.046875 11.5 -7.984375 C 12.539062 -6.929688 13.910156 -6.40625 15.609375 -6.40625 C 17.242188 -6.40625 18.585938 -6.941406 19.640625 -8.015625 C 20.691406 -9.085938 21.21875 -10.441406 21.21875 -12.078125 C 21.21875 -13.742188 20.675781 -15.109375 19.59375 -16.171875 C 18.507812 -17.242188 17.179688 -17.78125 15.609375 -17.78125 C 14.003906 -17.78125 12.660156 -17.242188 11.578125 -16.171875 Z M 11.578125 -16.171875 "/></g></g><g style="fill:rgb(100%,74.119568%,34.899902%);fill-opacity:1;"><g transform="translate(299.732516, 177.757738)"><path style="stroke:none;" d="M 2.828125 0 L 2.828125 -40.546875 L 11.171875 -40.546875 L 11.171875 0 Z M 2.828125 0 "/></g></g><g style="fill:rgb(100%,74.119568%,34.899902%);fill-opacity:1;"><g transform="translate(311.379914, 177.757738)"><path style="stroke:none;" d="M 27.296875 -10.9375 L 9.765625 -10.9375 C 9.765625 -9.238281 10.3125 -7.976562 11.40625 -7.15625 C 12.507812 -6.34375 13.707031 -5.9375 15 -5.9375 C 16.34375 -5.9375 17.40625 -6.117188 18.1875 -6.484375 C 18.976562 -6.847656 19.878906 -7.5625 20.890625 -8.625 L 26.921875 -5.609375 C 24.410156 -1.398438 20.226562 0.703125 14.375 0.703125 C 10.726562 0.703125 7.597656 -0.546875 4.984375 -3.046875 C 2.378906 -5.546875 1.078125 -8.554688 1.078125 -12.078125 C 1.078125 -15.597656 2.378906 -18.613281 4.984375 -21.125 C 7.597656 -23.644531 10.726562 -24.90625 14.375 -24.90625 C 18.21875 -24.90625 21.335938 -23.796875 23.734375 -21.578125 C 26.140625 -19.359375 27.34375 -16.191406 27.34375 -12.078125 C 27.34375 -11.503906 27.328125 -11.125 27.296875 -10.9375 Z M 10 -15.5625 L 19.1875 -15.5625 C 19 -16.820312 18.503906 -17.785156 17.703125 -18.453125 C 16.898438 -19.128906 15.875 -19.46875 14.625 -19.46875 C 13.238281 -19.46875 12.132812 -19.109375 11.3125 -18.390625 C 10.5 -17.671875 10.0625 -16.726562 10 -15.5625 Z M 10 -15.5625 "/></g></g><g style="fill:rgb(100%,74.119568%,34.899902%);fill-opacity:1;"><g transform="translate(337.457135, 177.757738)"><path style="stroke:none;" d="M 4.46875 -3 C 2.207031 -5.46875 1.078125 -8.492188 1.078125 -12.078125 C 1.078125 -15.660156 2.207031 -18.691406 4.46875 -21.171875 C 6.738281 -23.660156 9.617188 -24.90625 13.109375 -24.90625 C 16.316406 -24.90625 18.957031 -23.894531 21.03125 -21.875 L 21.03125 -40.546875 L 29.375 -40.546875 L 29.375 0 L 21.125 0 L 21.125 -2.734375 L 21.03125 -2.734375 C 18.957031 -0.441406 16.316406 0.703125 13.109375 0.703125 C 9.617188 0.703125 6.738281 -0.53125 4.46875 -3 Z M 11.578125 -16.171875 C 10.492188 -15.109375 9.953125 -13.742188 9.953125 -12.078125 C 9.953125 -10.410156 10.46875 -9.046875 11.5 -7.984375 C 12.539062 -6.929688 13.910156 -6.40625 15.609375 -6.40625 C 17.242188 -6.40625 18.585938 -6.941406 19.640625 -8.015625 C 20.691406 -9.085938 21.21875 -10.441406 21.21875 -12.078125 C 21.21875 -13.742188 20.675781 -15.109375 19.59375 -16.171875 C 18.507812 -17.242188 17.179688 -17.78125 15.609375 -17.78125 C 14.003906 -17.78125 12.660156 -17.242188 11.578125 -16.171875 Z M 11.578125 -16.171875 "/></g></g><g style="fill:rgb(100%,34.118652%,34.118652%);fill-opacity:1;"><g transform="translate(37.500002, 213.87996)"><path style="stroke:none;" d="M 6.578125 -4.109375 C 6.515625 -4.304688 6.457031 -4.503906 6.40625 -4.703125 C 6.363281 -4.910156 6.320312 -5.109375 6.28125 -5.296875 C 6.238281 -5.484375 6.203125 -5.648438 6.171875 -5.796875 C 6.140625 -5.953125 6.109375 -6.070312 6.078125 -6.15625 C 6.066406 -6.070312 6.039062 -5.945312 6 -5.78125 C 5.96875 -5.613281 5.929688 -5.429688 5.890625 -5.234375 C 5.847656 -5.035156 5.804688 -4.832031 5.765625 -4.625 C 5.722656 -4.425781 5.675781 -4.242188 5.625 -4.078125 L 4.359375 0 L 2.578125 0 L 0.078125 -9.015625 L 2.265625 -9.015625 L 3.109375 -5.625 C 3.160156 -5.425781 3.207031 -5.210938 3.25 -4.984375 C 3.300781 -4.765625 3.347656 -4.539062 3.390625 -4.3125 C 3.441406 -4.09375 3.484375 -3.878906 3.515625 -3.671875 C 3.546875 -3.460938 3.578125 -3.273438 3.609375 -3.109375 C 3.679688 -3.441406 3.765625 -3.835938 3.859375 -4.296875 C 3.960938 -4.765625 4.078125 -5.207031 4.203125 -5.625 L 5.21875 -9.015625 L 7 -9.015625 L 8.046875 -5.59375 C 8.191406 -5.101562 8.304688 -4.640625 8.390625 -4.203125 C 8.472656 -3.765625 8.550781 -3.382812 8.625 -3.0625 C 8.664062 -3.382812 8.722656 -3.757812 8.796875 -4.1875 C 8.867188 -4.625 8.96875 -5.097656 9.09375 -5.609375 L 9.9375 -9.015625 L 12.140625 -9.015625 L 9.640625 0 L 7.875 0 Z M 6.578125 -4.109375 "/></g></g><g style="fill:rgb(100%,34.118652%,34.118652%);fill-opacity:1;"><g transform="translate(50.306715, 213.87996)"><path style="stroke:none;" d="M 0.828125 -9.015625 L 6.5625 -9.015625 L 6.5625 -7.40625 L 3.015625 -7.40625 L 3.015625 -5.46875 L 5.96875 -5.46875 L 5.71875 -3.890625 L 3.015625 -3.890625 L 3.015625 -1.609375 L 6.75 -1.609375 L 6.75 0 L 0.828125 0 Z M 0.828125 -9.015625 "/></g></g><g style="fill:rgb(100%,34.118652%,34.118652%);fill-opacity:1;"><g transform="translate(57.948173, 213.87996)"><path style="stroke:none;" d=""/></g></g><g style="fill:rgb(100%,34.118652%,34.118652%);fill-opacity:1;"><g transform="translate(62.008567, 213.87996)"><path style="stroke:none;" d="M 6.140625 -3.859375 L 3.015625 -3.859375 L 3.015625 0 L 0.828125 0 L 0.828125 -9.015625 L 3.015625 -9.015625 L 3.015625 -5.484375 L 6.140625 -5.484375 L 6.140625 -9.015625 L 8.328125 -9.015625 L 8.328125 0 L 6.140625 0 Z M 6.140625 -3.859375 "/></g></g><g style="fill:rgb(100%,34.118652%,34.118652%);fill-opacity:1;"><g transform="translate(71.833282, 213.87996)"><path style="stroke:none;" d="M 0.828125 -9.015625 L 6.5625 -9.015625 L 6.5625 -7.40625 L 3.015625 -7.40625 L 3.015625 -5.46875 L 5.96875 -5.46875 L 5.71875 -3.890625 L 3.015625 -3.890625 L 3.015625 -1.609375 L 6.75 -1.609375 L 6.75 0 L 0.828125 0 Z M 0.828125 -9.015625 "/></g></g><g style="fill:rgb(100%,34.118652%,34.118652%);fill-opacity:1;"><g transform="translate(79.47474, 213.87996)"><path style="stroke:none;" d="M 0.828125 -9.015625 L 3.015625 -9.015625 L 3.015625 -1.609375 L 6.1875 -1.609375 L 6.1875 0 L 0.828125 0 Z M 0.828125 -9.015625 "/></g></g><g style="fill:rgb(100%,34.118652%,34.118652%);fill-opacity:1;"><g transform="translate(86.237576, 213.87996)"><path style="stroke:none;" d="M 0.828125 -9.015625 C 0.890625 -9.015625 1.035156 -9.015625 1.265625 -9.015625 C 1.503906 -9.023438 1.765625 -9.03125 2.046875 -9.03125 C 2.328125 -9.03125 2.609375 -9.03125 2.890625 -9.03125 C 3.179688 -9.039062 3.414062 -9.046875 3.59375 -9.046875 C 4.726562 -9.046875 5.578125 -8.800781 6.140625 -8.3125 C 6.710938 -7.832031 7 -7.160156 7 -6.296875 C 7 -5.347656 6.675781 -4.632812 6.03125 -4.15625 C 5.394531 -3.6875 4.523438 -3.453125 3.421875 -3.453125 L 3.015625 -3.453125 L 3.015625 0 L 0.828125 0 Z M 3.015625 -4.90625 L 3.578125 -4.90625 C 3.878906 -4.90625 4.140625 -5.007812 4.359375 -5.21875 C 4.585938 -5.425781 4.703125 -5.75 4.703125 -6.1875 C 4.703125 -6.5625 4.609375 -6.882812 4.421875 -7.15625 C 4.242188 -7.4375 3.941406 -7.582031 3.515625 -7.59375 C 3.398438 -7.59375 3.300781 -7.585938 3.21875 -7.578125 C 3.144531 -7.578125 3.078125 -7.570312 3.015625 -7.5625 Z M 3.015625 -4.90625 "/></g></g><g style="fill:rgb(100%,34.118652%,34.118652%);fill-opacity:1;"><g transform="translate(94.145289, 213.87996)"><path style="stroke:none;" d="M 0.96875 -1.5625 C 0.976562 -1.570312 1.003906 -1.59375 1.046875 -1.625 C 1.097656 -1.65625 1.171875 -1.6875 1.265625 -1.71875 C 1.359375 -1.757812 1.476562 -1.796875 1.625 -1.828125 C 1.78125 -1.859375 1.960938 -1.875 2.171875 -1.875 C 2.578125 -1.875 2.863281 -1.753906 3.03125 -1.515625 C 3.195312 -1.273438 3.28125 -0.992188 3.28125 -0.671875 C 3.28125 -0.0976562 3.113281 0.445312 2.78125 0.96875 C 2.457031 1.5 1.929688 1.953125 1.203125 2.328125 L 0.421875 1.28125 C 0.742188 1.050781 0.957031 0.800781 1.0625 0.53125 C 1.175781 0.269531 1.234375 0.0195312 1.234375 -0.21875 C 1.234375 -0.5 1.191406 -0.753906 1.109375 -0.984375 C 1.035156 -1.210938 0.988281 -1.40625 0.96875 -1.5625 Z M 0.96875 -1.5625 "/></g></g><g style="fill:rgb(100%,34.118652%,34.118652%);fill-opacity:1;"><g transform="translate(98.79143, 213.87996)"><path style="stroke:none;" d=""/></g></g><g style="fill:rgb(100%,34.118652%,34.118652%);fill-opacity:1;"><g transform="translate(102.851827, 213.87996)"><path style="stroke:none;" d="M 2.78125 -3.46875 L 0 -9.015625 L 2.3125 -9.015625 L 3.90625 -5.5625 L 5.546875 -9.015625 L 7.84375 -9.015625 L 4.96875 -3.34375 L 4.96875 0 L 2.78125 0 Z M 2.78125 -3.46875 "/></g></g><g style="fill:rgb(100%,34.118652%,34.118652%);fill-opacity:1;"><g transform="translate(111.358598, 213.87996)"><path style="stroke:none;" d="M 4.703125 -9.125 C 5.398438 -9.125 6 -9.019531 6.5 -8.8125 C 7.007812 -8.601562 7.425781 -8.300781 7.75 -7.90625 C 8.082031 -7.519531 8.328125 -7.039062 8.484375 -6.46875 C 8.640625 -5.90625 8.71875 -5.273438 8.71875 -4.578125 C 8.71875 -3.890625 8.628906 -3.257812 8.453125 -2.6875 C 8.285156 -2.113281 8.023438 -1.617188 7.671875 -1.203125 C 7.328125 -0.796875 6.894531 -0.476562 6.375 -0.25 C 5.851562 -0.03125 5.238281 0.078125 4.53125 0.078125 C 3.820312 0.078125 3.210938 -0.0195312 2.703125 -0.21875 C 2.191406 -0.414062 1.769531 -0.707031 1.4375 -1.09375 C 1.113281 -1.476562 0.875 -1.945312 0.71875 -2.5 C 0.570312 -3.050781 0.5 -3.679688 0.5 -4.390625 C 0.5 -5.085938 0.582031 -5.722656 0.75 -6.296875 C 0.925781 -6.878906 1.1875 -7.378906 1.53125 -7.796875 C 1.875 -8.222656 2.3125 -8.550781 2.84375 -8.78125 C 3.375 -9.007812 3.992188 -9.125 4.703125 -9.125 Z M 4.515625 -7.578125 C 3.929688 -7.578125 3.507812 -7.304688 3.25 -6.765625 C 2.988281 -6.234375 2.859375 -5.492188 2.859375 -4.546875 C 2.859375 -4.085938 2.882812 -3.671875 2.9375 -3.296875 C 3 -2.929688 3.097656 -2.613281 3.234375 -2.34375 C 3.378906 -2.070312 3.570312 -1.859375 3.8125 -1.703125 C 4.050781 -1.554688 4.351562 -1.484375 4.71875 -1.484375 C 5.289062 -1.484375 5.703125 -1.738281 5.953125 -2.25 C 6.210938 -2.757812 6.34375 -3.492188 6.34375 -4.453125 C 6.34375 -4.898438 6.3125 -5.3125 6.25 -5.6875 C 6.195312 -6.070312 6.101562 -6.40625 5.96875 -6.6875 C 5.832031 -6.96875 5.644531 -7.1875 5.40625 -7.34375 C 5.164062 -7.5 4.867188 -7.578125 4.515625 -7.578125 Z M 4.515625 -7.578125 "/></g></g><g style="fill:rgb(100%,34.118652%,34.118652%);fill-opacity:1;"><g transform="translate(121.249875, 213.87996)"><path style="stroke:none;" d="M 2.875 -9.015625 L 2.875 -3.640625 C 2.875 -3.253906 2.914062 -2.929688 3 -2.671875 C 3.082031 -2.421875 3.195312 -2.210938 3.34375 -2.046875 C 3.488281 -1.890625 3.664062 -1.773438 3.875 -1.703125 C 4.082031 -1.640625 4.300781 -1.609375 4.53125 -1.609375 C 5.007812 -1.609375 5.375 -1.78125 5.625 -2.125 C 5.875 -2.46875 6 -2.972656 6 -3.640625 L 6 -9.015625 L 8.203125 -9.015625 L 8.203125 -3.53125 C 8.203125 -3.050781 8.132812 -2.59375 8 -2.15625 C 7.863281 -1.71875 7.640625 -1.332031 7.328125 -1 C 7.023438 -0.664062 6.628906 -0.398438 6.140625 -0.203125 C 5.660156 -0.015625 5.066406 0.078125 4.359375 0.078125 C 3.671875 0.078125 3.09375 -0.0195312 2.625 -0.21875 C 2.164062 -0.414062 1.789062 -0.679688 1.5 -1.015625 C 1.21875 -1.347656 1.007812 -1.734375 0.875 -2.171875 C 0.75 -2.609375 0.6875 -3.0625 0.6875 -3.53125 L 0.6875 -9.015625 Z M 2.875 -9.015625 "/></g></g><g style="fill:rgb(100%,34.118652%,34.118652%);fill-opacity:1;"><g transform="translate(130.808334, 213.87996)"><path style="stroke:none;" d=""/></g></g><g style="fill:rgb(100%,34.118652%,34.118652%);fill-opacity:1;"><g transform="translate(134.868732, 213.87996)"><path style="stroke:none;" d="M 3.546875 -9.125 C 3.867188 -9.125 4.175781 -9.097656 4.46875 -9.046875 C 4.769531 -8.992188 5.050781 -8.925781 5.3125 -8.84375 C 5.570312 -8.769531 5.804688 -8.679688 6.015625 -8.578125 C 6.222656 -8.472656 6.398438 -8.367188 6.546875 -8.265625 L 5.78125 -6.796875 C 5.675781 -6.847656 5.546875 -6.914062 5.390625 -7 C 5.242188 -7.09375 5.082031 -7.175781 4.90625 -7.25 C 4.726562 -7.332031 4.546875 -7.398438 4.359375 -7.453125 C 4.179688 -7.503906 4.007812 -7.53125 3.84375 -7.53125 C 3.53125 -7.53125 3.296875 -7.46875 3.140625 -7.34375 C 2.992188 -7.21875 2.921875 -7.054688 2.921875 -6.859375 C 2.929688 -6.703125 2.96875 -6.566406 3.03125 -6.453125 C 3.09375 -6.335938 3.1875 -6.222656 3.3125 -6.109375 C 3.4375 -6.003906 3.597656 -5.894531 3.796875 -5.78125 C 3.992188 -5.675781 4.234375 -5.566406 4.515625 -5.453125 C 4.867188 -5.304688 5.175781 -5.148438 5.4375 -4.984375 C 5.707031 -4.828125 5.925781 -4.644531 6.09375 -4.4375 C 6.269531 -4.238281 6.398438 -4.007812 6.484375 -3.75 C 6.578125 -3.5 6.625 -3.203125 6.625 -2.859375 C 6.625 -2.453125 6.550781 -2.066406 6.40625 -1.703125 C 6.257812 -1.347656 6.046875 -1.035156 5.765625 -0.765625 C 5.492188 -0.503906 5.160156 -0.296875 4.765625 -0.140625 C 4.378906 0.00390625 3.945312 0.078125 3.46875 0.078125 C 3.113281 0.078125 2.78125 0.046875 2.46875 -0.015625 C 2.15625 -0.078125 1.863281 -0.15625 1.59375 -0.25 C 1.332031 -0.351562 1.085938 -0.457031 0.859375 -0.5625 C 0.640625 -0.675781 0.453125 -0.78125 0.296875 -0.875 L 1.015625 -2.453125 C 1.078125 -2.410156 1.191406 -2.335938 1.359375 -2.234375 C 1.523438 -2.128906 1.710938 -2.023438 1.921875 -1.921875 C 2.140625 -1.816406 2.359375 -1.722656 2.578125 -1.640625 C 2.804688 -1.566406 3.007812 -1.53125 3.1875 -1.53125 C 3.550781 -1.53125 3.820312 -1.613281 4 -1.78125 C 4.175781 -1.957031 4.265625 -2.207031 4.265625 -2.53125 C 4.265625 -2.851562 4.15625 -3.09375 3.9375 -3.25 C 3.71875 -3.414062 3.410156 -3.578125 3.015625 -3.734375 C 2.617188 -3.898438 2.269531 -4.070312 1.96875 -4.25 C 1.664062 -4.425781 1.410156 -4.625 1.203125 -4.84375 C 0.992188 -5.0625 0.832031 -5.304688 0.71875 -5.578125 C 0.613281 -5.859375 0.5625 -6.179688 0.5625 -6.546875 C 0.5625 -6.953125 0.640625 -7.3125 0.796875 -7.625 C 0.960938 -7.9375 1.179688 -8.203125 1.453125 -8.421875 C 1.734375 -8.648438 2.050781 -8.820312 2.40625 -8.9375 C 2.769531 -9.0625 3.148438 -9.125 3.546875 -9.125 Z M 3.546875 -9.125 "/></g></g><g style="fill:rgb(100%,34.118652%,34.118652%);fill-opacity:1;"><g transform="translate(142.536822, 213.87996)"><path style="stroke:none;" d="M 0.828125 -9.015625 L 6.5625 -9.015625 L 6.5625 -7.40625 L 3.015625 -7.40625 L 3.015625 -5.46875 L 5.96875 -5.46875 L 5.71875 -3.890625 L 3.015625 -3.890625 L 3.015625 -1.609375 L 6.75 -1.609375 L 6.75 0 L 0.828125 0 Z M 0.828125 -9.015625 "/></g></g><g style="fill:rgb(100%,34.118652%,34.118652%);fill-opacity:1;"><g transform="translate(150.178282, 213.87996)"><path style="stroke:none;" d="M 0.828125 -9.015625 L 3.015625 -9.015625 L 3.015625 -1.609375 L 6.1875 -1.609375 L 6.1875 0 L 0.828125 0 Z M 0.828125 -9.015625 "/></g></g><g style="fill:rgb(100%,34.118652%,34.118652%);fill-opacity:1;"><g transform="translate(156.941122, 213.87996)"><path style="stroke:none;" d="M 0.828125 -9.015625 L 6.5625 -9.015625 L 6.5625 -7.40625 L 3.015625 -7.40625 L 3.015625 -5.46875 L 5.96875 -5.46875 L 5.71875 -3.890625 L 3.015625 -3.890625 L 3.015625 -1.609375 L 6.75 -1.609375 L 6.75 0 L 0.828125 0 Z M 0.828125 -9.015625 "/></g></g><g style="fill:rgb(100%,34.118652%,34.118652%);fill-opacity:1;"><g transform="translate(164.582582, 213.87996)"><path style="stroke:none;" d="M 5.953125 -6.8125 C 5.703125 -7.113281 5.460938 -7.316406 5.234375 -7.421875 C 5.003906 -7.523438 4.773438 -7.578125 4.546875 -7.578125 C 3.960938 -7.578125 3.539062 -7.304688 3.28125 -6.765625 C 3.019531 -6.234375 2.890625 -5.492188 2.890625 -4.546875 C 2.890625 -4.085938 2.914062 -3.671875 2.96875 -3.296875 C 3.03125 -2.921875 3.128906 -2.597656 3.265625 -2.328125 C 3.410156 -2.066406 3.597656 -1.859375 3.828125 -1.703125 C 4.066406 -1.554688 4.363281 -1.484375 4.71875 -1.484375 C 5.03125 -1.484375 5.332031 -1.519531 5.625 -1.59375 C 5.925781 -1.664062 6.203125 -1.75 6.453125 -1.84375 L 6.9375 -0.359375 C 6.65625 -0.242188 6.304688 -0.140625 5.890625 -0.046875 C 5.472656 0.0351562 4.992188 0.078125 4.453125 0.078125 C 3.085938 0.078125 2.085938 -0.304688 1.453125 -1.078125 C 0.828125 -1.859375 0.515625 -2.960938 0.515625 -4.390625 C 0.515625 -5.085938 0.597656 -5.722656 0.765625 -6.296875 C 0.929688 -6.867188 1.179688 -7.363281 1.515625 -7.78125 C 1.847656 -8.207031 2.265625 -8.535156 2.765625 -8.765625 C 3.265625 -9.003906 3.859375 -9.125 4.546875 -9.125 C 4.898438 -9.125 5.210938 -9.09375 5.484375 -9.03125 C 5.753906 -8.976562 5.988281 -8.898438 6.1875 -8.796875 C 6.394531 -8.691406 6.578125 -8.570312 6.734375 -8.4375 C 6.890625 -8.300781 7.03125 -8.164062 7.15625 -8.03125 Z M 5.953125 -6.8125 "/></g></g><g style="fill:rgb(100%,34.118652%,34.118652%);fill-opacity:1;"><g transform="translate(172.556859, 213.87996)"><path style="stroke:none;" d="M 6.71875 -9.015625 L 6.4375 -7.40625 L 4.359375 -7.40625 L 4.359375 0 L 2.171875 0 L 2.171875 -7.40625 L 0.03125 -7.40625 L 0.03125 -9.015625 Z M 6.71875 -9.015625 "/></g></g></g></svg>