<?xml version="1.0" encoding="UTF-8"?><svg xmlns="http://www.w3.org/2000/svg" xmlns:xlink="http://www.w3.org/1999/xlink" contentScriptType="text/ecmascript" width="375pt" zoomAndPan="magnify" contentStyleType="text/css" viewBox="0 0 375 374.999991" height="374.999991pt" preserveAspectRatio="xMidYMid meet" version="1.2"><defs><g/></defs><g xml:id="surface1" id="surface1"><g style="fill:rgb(100%,100%,100%);fill-opacity:1;"><g transform="translate(56.959798, 184.197893)"><path style="stroke:none;" d="M 15.457031 -24.316406 C 12.9375 -24.316406 10.960938 -23.644531 9.367188 -21.253906 L 9.367188 -23.8125 L 2.308594 -23.8125 L 2.308594 8.230469 L 9.367188 8.230469 L 9.367188 -2.5625 C 10.960938 -0.167969 12.9375 0.503906 15.457031 0.503906 C 21.546875 0.503906 25.828125 -4.621094 25.828125 -11.886719 C 25.828125 -19.195312 21.546875 -24.316406 15.457031 -24.316406 Z M 13.480469 -18.3125 C 16.632812 -18.3125 18.691406 -15.664062 18.691406 -11.886719 C 18.691406 -8.148438 16.632812 -5.503906 13.480469 -5.503906 C 10.375 -5.503906 8.273438 -8.0625 8.273438 -11.886719 C 8.273438 -15.75 10.375 -18.3125 13.480469 -18.3125 Z M 13.480469 -18.3125 "/></g></g><g style="fill:rgb(100%,100%,100%);fill-opacity:1;"><g transform="translate(83.167791, 184.197893)"><path style="stroke:none;" d="M 9.367188 0 L 9.367188 -10.039062 C 9.367188 -13.273438 9.910156 -15.160156 11.128906 -16.339844 C 11.96875 -17.136719 13.1875 -17.597656 15.160156 -17.597656 L 16.507812 -17.597656 L 16.507812 -24.316406 L 15.457031 -24.316406 C 12.9375 -24.316406 10.960938 -23.644531 9.367188 -21.253906 L 9.367188 -23.8125 L 2.308594 -23.8125 L 2.308594 0 Z M 9.367188 0 "/></g></g><g style="fill:rgb(100%,100%,100%);fill-opacity:1;"><g transform="translate(99.337783, 184.197893)"><path style="stroke:none;" d="M 13.859375 0.503906 C 21.421875 0.503906 26.375 -4.492188 26.375 -12.054688 C 26.375 -19.320312 21.335938 -24.316406 13.859375 -24.316406 C 6.382812 -24.316406 1.34375 -19.363281 1.34375 -12.054688 C 1.34375 -4.453125 6.425781 0.503906 13.859375 0.503906 Z M 13.859375 -5.542969 C 10.710938 -5.542969 8.609375 -8.0625 8.609375 -12.054688 C 8.609375 -15.792969 10.710938 -18.3125 13.859375 -18.3125 C 17.050781 -18.3125 19.027344 -15.75 19.027344 -12.054688 C 19.027344 -8.148438 17.050781 -5.542969 13.859375 -5.542969 Z M 13.859375 -5.542969 "/></g></g><g style="fill:rgb(100%,100%,100%);fill-opacity:1;"><g transform="translate(126.007774, 184.197893)"><path style="stroke:none;" d="M 11.425781 0 L 11.425781 -18.355469 L 14.992188 -18.355469 L 14.992188 -23.8125 L 11.425781 -23.8125 L 11.425781 -25.074219 C 11.425781 -26.375 12.265625 -26.628906 12.808594 -26.628906 L 14.992188 -26.628906 L 14.992188 -32.046875 L 11.089844 -32.046875 C 6.71875 -32.046875 4.285156 -29.863281 4.285156 -26.125 L 4.285156 -23.8125 L 0.882812 -23.8125 L 0.882812 -18.355469 L 4.285156 -18.355469 L 4.285156 0 Z M 11.425781 0 "/></g></g><g style="fill:rgb(100%,100%,100%);fill-opacity:1;"><g transform="translate(140.833771, 184.197893)"><path style="stroke:none;" d="M 13.777344 0.503906 C 20.496094 0.503906 24.148438 -3.527344 25.492188 -8.230469 L 18.394531 -8.230469 C 17.808594 -6.761719 16.296875 -5.542969 14.152344 -5.542969 C 12.390625 -5.542969 10.960938 -6.089844 9.953125 -7.351562 C 9.367188 -8.0625 8.902344 -9.238281 8.734375 -10.414062 L 25.871094 -10.414062 L 25.871094 -11.632812 C 25.871094 -20.832031 19.824219 -24.316406 13.566406 -24.316406 C 4.957031 -24.316406 1.34375 -17.765625 1.34375 -11.71875 C 1.34375 -4.660156 6.214844 0.503906 13.777344 0.503906 Z M 8.945312 -15.414062 C 9.03125 -15.960938 9.238281 -16.757812 10.039062 -17.554688 C 11.046875 -18.5625 12.390625 -18.941406 13.816406 -18.941406 C 15.246094 -18.941406 16.589844 -18.5625 17.597656 -17.554688 C 18.355469 -16.800781 18.605469 -15.960938 18.730469 -15.414062 Z M 8.945312 -15.414062 "/></g></g><g style="fill:rgb(100%,100%,100%);fill-opacity:1;"><g transform="translate(166.999769, 184.197893)"><path style="stroke:none;" d="M 13.019531 0.503906 C 19.363281 0.503906 23.226562 -2.6875 23.226562 -7.433594 C 23.226562 -12.976562 18.019531 -13.945312 13.859375 -14.699219 C 11.128906 -15.203125 8.863281 -15.625 8.863281 -17.21875 C 8.863281 -18.3125 9.996094 -19.027344 11.71875 -19.027344 C 13.523438 -19.027344 15.328125 -18.1875 16.003906 -15.917969 L 22.679688 -15.917969 C 21.796875 -21.335938 17.554688 -24.316406 11.761719 -24.316406 C 6.804688 -24.316406 2.183594 -22.300781 2.183594 -17.050781 C 2.183594 -11.425781 7.308594 -10.375 11.382812 -9.574219 C 14.070312 -9.03125 16.296875 -8.566406 16.296875 -6.972656 C 16.296875 -5.628906 14.824219 -4.828125 12.9375 -4.828125 C 10.921875 -4.828125 8.863281 -5.839844 8.0625 -8.230469 L 1.21875 -8.230469 C 2.015625 -1.597656 8.023438 0.503906 13.019531 0.503906 Z M 13.019531 0.503906 "/></g></g><g style="fill:rgb(100%,100%,100%);fill-opacity:1;"><g transform="translate(190.645757, 184.197893)"><path style="stroke:none;" d="M 13.019531 0.503906 C 19.363281 0.503906 23.226562 -2.6875 23.226562 -7.433594 C 23.226562 -12.976562 18.019531 -13.945312 13.859375 -14.699219 C 11.128906 -15.203125 8.863281 -15.625 8.863281 -17.21875 C 8.863281 -18.3125 9.996094 -19.027344 11.71875 -19.027344 C 13.523438 -19.027344 15.328125 -18.1875 16.003906 -15.917969 L 22.679688 -15.917969 C 21.796875 -21.335938 17.554688 -24.316406 11.761719 -24.316406 C 6.804688 -24.316406 2.183594 -22.300781 2.183594 -17.050781 C 2.183594 -11.425781 7.308594 -10.375 11.382812 -9.574219 C 14.070312 -9.03125 16.296875 -8.566406 16.296875 -6.972656 C 16.296875 -5.628906 14.824219 -4.828125 12.9375 -4.828125 C 10.921875 -4.828125 8.863281 -5.839844 8.0625 -8.230469 L 1.21875 -8.230469 C 2.015625 -1.597656 8.023438 0.503906 13.019531 0.503906 Z M 13.019531 0.503906 "/></g></g><g style="fill:rgb(100%,100%,100%);fill-opacity:1;"><g transform="translate(214.291744, 184.197893)"><path style="stroke:none;" d="M 5.839844 -25.453125 C 8.023438 -25.453125 9.828125 -26.796875 9.828125 -29.0625 C 9.828125 -31.289062 8.023438 -32.71875 5.839844 -32.71875 C 3.652344 -32.71875 1.847656 -31.289062 1.847656 -29.0625 C 1.847656 -26.796875 3.652344 -25.453125 5.839844 -25.453125 Z M 9.367188 0 L 9.367188 -23.8125 L 2.308594 -23.8125 L 2.308594 0 Z M 9.367188 0 "/></g></g><g style="fill:rgb(100%,100%,100%);fill-opacity:1;"><g transform="translate(224.917731, 184.197893)"><path style="stroke:none;" d="M 13.859375 0.503906 C 21.421875 0.503906 26.375 -4.492188 26.375 -12.054688 C 26.375 -19.320312 21.335938 -24.316406 13.859375 -24.316406 C 6.382812 -24.316406 1.34375 -19.363281 1.34375 -12.054688 C 1.34375 -4.453125 6.425781 0.503906 13.859375 0.503906 Z M 13.859375 -5.542969 C 10.710938 -5.542969 8.609375 -8.0625 8.609375 -12.054688 C 8.609375 -15.792969 10.710938 -18.3125 13.859375 -18.3125 C 17.050781 -18.3125 19.027344 -15.75 19.027344 -12.054688 C 19.027344 -8.148438 17.050781 -5.542969 13.859375 -5.542969 Z M 13.859375 -5.542969 "/></g></g><g style="fill:rgb(100%,100%,100%);fill-opacity:1;"><g transform="translate(251.587716, 184.197893)"><path style="stroke:none;" d="M 9.367188 0 L 9.367188 -13.398438 C 9.367188 -15.457031 9.660156 -16.632812 10.246094 -17.429688 C 10.878906 -18.3125 11.929688 -18.648438 13.398438 -18.648438 C 14.574219 -18.648438 15.414062 -18.394531 16.003906 -17.765625 C 16.714844 -17.011719 17.011719 -15.75 17.011719 -13.398438 L 17.011719 0 L 24.066406 0 L 24.066406 -13.3125 C 24.066406 -16.253906 24.066406 -18.144531 23.140625 -20.203125 C 22.175781 -22.386719 20.160156 -24.316406 15.457031 -24.316406 C 12.9375 -24.316406 10.960938 -23.644531 9.367188 -21.253906 L 9.367188 -23.8125 L 2.308594 -23.8125 L 2.308594 0 Z M 9.367188 0 "/></g></g><g style="fill:rgb(100%,100%,100%);fill-opacity:1;"><g transform="translate(276.745719, 184.197893)"><path style="stroke:none;" d="M 9.199219 0.503906 C 11.171875 0.503906 13.0625 0.210938 14.449219 -0.757812 C 15.203125 -1.261719 15.75 -1.972656 16.128906 -2.898438 L 16.128906 0 L 23.183594 0 L 23.183594 -11.296875 C 23.183594 -15.707031 23.183594 -19.445312 20.242188 -21.964844 C 18.355469 -23.605469 15.625 -24.316406 12.851562 -24.316406 C 8.0625 -24.316406 3.148438 -21.839844 2.269531 -15.875 L 9.28125 -15.875 C 9.617188 -17.890625 11.171875 -19.027344 12.808594 -19.027344 C 13.859375 -19.027344 14.65625 -18.773438 15.203125 -18.1875 C 15.75 -17.554688 16.085938 -16.632812 16.171875 -15.414062 L 9.996094 -14.320312 C 8.191406 -13.984375 6.046875 -13.523438 4.367188 -12.433594 C 2.644531 -11.296875 1.386719 -9.535156 1.386719 -6.679688 C 1.386719 -1.890625 4.914062 0.503906 9.199219 0.503906 Z M 11.257812 -4.828125 C 9.742188 -4.828125 8.441406 -5.417969 8.441406 -6.929688 C 8.441406 -7.601562 8.695312 -8.0625 9.070312 -8.441406 C 9.660156 -8.988281 10.414062 -9.28125 11.96875 -9.574219 L 16.296875 -10.414062 C 16.210938 -7.8125 15.75 -6.300781 13.816406 -5.417969 C 12.976562 -5.039062 12.054688 -4.828125 11.257812 -4.828125 Z M 11.257812 -4.828125 "/></g></g><g style="fill:rgb(100%,100%,100%);fill-opacity:1;"><g transform="translate(300.937703, 184.197893)"><path style="stroke:none;" d="M 12.390625 0 L 12.390625 -5.710938 L 10.625 -5.710938 C 10.078125 -5.710938 9.238281 -5.878906 9.238281 -7.183594 L 9.238281 -32.046875 L 2.183594 -32.046875 L 2.183594 -4.746094 C 2.183594 -1.722656 4.15625 0 7.644531 0 Z M 12.390625 0 "/></g></g><g style="fill:rgb(100%,100%,100%);fill-opacity:1;"><g transform="translate(313.243694, 184.197893)"><path style="stroke:none;" d="M 13.777344 0.503906 C 20.496094 0.503906 24.148438 -3.527344 25.492188 -8.230469 L 18.394531 -8.230469 C 17.808594 -6.761719 16.296875 -5.542969 14.152344 -5.542969 C 12.390625 -5.542969 10.960938 -6.089844 9.953125 -7.351562 C 9.367188 -8.0625 8.902344 -9.238281 8.734375 -10.414062 L 25.871094 -10.414062 L 25.871094 -11.632812 C 25.871094 -20.832031 19.824219 -24.316406 13.566406 -24.316406 C 4.957031 -24.316406 1.34375 -17.765625 1.34375 -11.71875 C 1.34375 -4.660156 6.214844 0.503906 13.777344 0.503906 Z M 8.945312 -15.414062 C 9.03125 -15.960938 9.238281 -16.757812 10.039062 -17.554688 C 11.046875 -18.5625 12.390625 -18.941406 13.816406 -18.941406 C 15.246094 -18.941406 16.589844 -18.5625 17.597656 -17.554688 C 18.355469 -16.800781 18.605469 -15.960938 18.730469 -15.414062 Z M 8.945312 -15.414062 "/></g></g><g style="fill:rgb(100%,100%,100%);fill-opacity:1;"><g transform="translate(339.409692, 184.197893)"><path style="stroke:none;" d="M 11.800781 0.503906 C 14.320312 0.503906 16.296875 -0.167969 17.890625 -2.5625 L 17.890625 0 L 24.949219 0 L 24.949219 -32.046875 L 17.890625 -32.046875 L 17.890625 -21.253906 C 16.296875 -23.644531 14.320312 -24.316406 11.800781 -24.316406 C 5.710938 -24.316406 1.429688 -19.195312 1.429688 -11.929688 C 1.429688 -4.621094 5.710938 0.503906 11.800781 0.503906 Z M 13.777344 -5.503906 C 10.625 -5.503906 8.566406 -8.148438 8.566406 -11.929688 C 8.566406 -15.664062 10.625 -18.3125 13.777344 -18.3125 C 16.882812 -18.3125 18.984375 -15.75 18.984375 -11.929688 C 18.984375 -8.0625 16.882812 -5.503906 13.777344 -5.503906 Z M 13.777344 -5.503906 "/></g></g><g style="fill:rgb(100%,34.118652%,34.118652%);fill-opacity:1;"><g transform="translate(56.959798, 206.147902)"><path style="stroke:none;" d="M 5.238281 0 L 7.148438 -7.773438 L 9.046875 0 L 11.371094 0 L 14.078125 -9.917969 L 12.347656 -9.917969 L 10.175781 -1.675781 L 8.125 -9.917969 L 6.160156 -9.917969 L 4.121094 -1.691406 L 1.9375 -9.917969 L 0.207031 -9.917969 L 2.925781 0 Z M 5.238281 0 "/></g></g><g style="fill:rgb(100%,34.118652%,34.118652%);fill-opacity:1;"><g transform="translate(71.255414, 206.147902)"><path style="stroke:none;" d="M 7.488281 0 L 7.488281 -1.480469 L 2.574219 -1.480469 L 2.574219 -4.238281 L 6.941406 -4.238281 L 6.941406 -5.707031 L 2.574219 -5.707031 L 2.574219 -8.433594 L 7.488281 -8.433594 L 7.488281 -9.917969 L 0.921875 -9.917969 L 0.921875 0 Z M 7.488281 0 "/></g></g><g style="fill:rgb(100%,34.118652%,34.118652%);fill-opacity:1;"><g transform="translate(79.299946, 206.147902)"><path style="stroke:none;" d=""/></g></g><g style="fill:rgb(100%,34.118652%,34.118652%);fill-opacity:1;"><g transform="translate(82.834866, 206.147902)"><path style="stroke:none;" d="M 2.574219 0 L 2.574219 -4.238281 L 7.058594 -4.238281 L 7.058594 0 L 8.707031 0 L 8.707031 -9.917969 L 7.058594 -9.917969 L 7.058594 -5.707031 L 2.574219 -5.707031 L 2.574219 -9.917969 L 0.921875 -9.917969 L 0.921875 0 Z M 2.574219 0 "/></g></g><g style="fill:rgb(100%,34.118652%,34.118652%);fill-opacity:1;"><g transform="translate(92.490909, 206.147902)"><path style="stroke:none;" d="M 7.488281 0 L 7.488281 -1.480469 L 2.574219 -1.480469 L 2.574219 -4.238281 L 6.941406 -4.238281 L 6.941406 -5.707031 L 2.574219 -5.707031 L 2.574219 -8.433594 L 7.488281 -8.433594 L 7.488281 -9.917969 L 0.921875 -9.917969 L 0.921875 0 Z M 7.488281 0 "/></g></g><g style="fill:rgb(100%,34.118652%,34.118652%);fill-opacity:1;"><g transform="translate(100.535441, 206.147902)"><path style="stroke:none;" d="M 6.863281 0 L 6.863281 -1.480469 L 2.574219 -1.480469 L 2.574219 -9.917969 L 0.921875 -9.917969 L 0.921875 0 Z M 6.863281 0 "/></g></g><g style="fill:rgb(100%,34.118652%,34.118652%);fill-opacity:1;"><g transform="translate(107.55329, 206.147902)"><path style="stroke:none;" d="M 2.574219 0 L 2.574219 -4.042969 L 5.015625 -4.042969 C 6.890625 -4.042969 8.148438 -5.148438 8.148438 -7.019531 C 8.148438 -9.035156 6.875 -9.917969 5.015625 -9.917969 L 0.921875 -9.917969 L 0.921875 0 Z M 2.574219 -8.433594 L 4.796875 -8.433594 C 5.902344 -8.433594 6.523438 -7.914062 6.523438 -6.964844 C 6.523438 -6.003906 5.914062 -5.484375 4.796875 -5.484375 L 2.574219 -5.484375 Z M 2.574219 -8.433594 "/></g></g><g style="fill:rgb(100%,34.118652%,34.118652%);fill-opacity:1;"><g transform="translate(116.091669, 206.147902)"><path style="stroke:none;" d=""/></g></g><g style="fill:rgb(100%,34.118652%,34.118652%);fill-opacity:1;"><g transform="translate(119.626588, 206.147902)"><path style="stroke:none;" d="M 0.703125 2.222656 C 2.328125 2.09375 2.910156 0.949219 2.910156 -0.105469 C 2.910156 -1.078125 2.46875 -1.753906 1.652344 -1.753906 C 1.027344 -1.753906 0.625 -1.351562 0.625 -0.78125 C 0.625 -0.207031 1.015625 0.128906 1.429688 0.128906 C 1.703125 0.128906 1.910156 0.0507812 2.054688 -0.15625 C 2.066406 -0.0273438 2.066406 0.105469 2.054688 0.222656 C 2 0.898438 1.519531 1.351562 0.703125 1.417969 Z M 0.703125 2.222656 "/></g></g><g style="fill:rgb(100%,34.118652%,34.118652%);fill-opacity:1;"><g transform="translate(123.161508, 206.147902)"><path style="stroke:none;" d="M 5.367188 0 L 5.367188 -3.847656 L 8.996094 -9.917969 L 7.082031 -9.917969 L 4.484375 -5.457031 L 1.910156 -9.917969 L -0.0117188 -9.917969 L 3.640625 -3.847656 L 3.640625 0 Z M 5.367188 0 "/></g></g><g style="fill:rgb(100%,34.118652%,34.118652%);fill-opacity:1;"><g transform="translate(132.154755, 206.147902)"><path style="stroke:none;" d="M 5.304688 0.167969 C 8.527344 0.167969 10.046875 -2.234375 10.046875 -4.964844 C 10.046875 -7.695312 8.527344 -10.074219 5.304688 -10.074219 C 2.066406 -10.074219 0.558594 -7.695312 0.558594 -4.964844 C 0.558594 -2.234375 2.066406 0.167969 5.304688 0.167969 Z M 5.304688 -1.3125 C 3.351562 -1.3125 2.261719 -2.820312 2.261719 -4.964844 C 2.261719 -7.097656 3.351562 -8.605469 5.304688 -8.605469 C 7.265625 -8.605469 8.34375 -7.097656 8.34375 -4.964844 C 8.34375 -2.820312 7.265625 -1.3125 5.304688 -1.3125 Z M 5.304688 -1.3125 "/></g></g><g style="fill:rgb(100%,34.118652%,34.118652%);fill-opacity:1;"><g transform="translate(142.772503, 206.147902)"><path style="stroke:none;" d="M 4.730469 0.167969 C 7.460938 0.167969 8.617188 -1.3125 8.617188 -3.535156 L 8.617188 -9.917969 L 6.964844 -9.917969 L 6.964844 -3.535156 C 6.964844 -2.210938 6.367188 -1.300781 4.730469 -1.300781 C 3.082031 -1.300781 2.484375 -2.210938 2.484375 -3.535156 L 2.484375 -9.917969 L 0.832031 -9.917969 L 0.832031 -3.535156 C 0.832031 -1.3125 2 0.167969 4.730469 0.167969 Z M 4.730469 0.167969 "/></g></g><g style="fill:rgb(100%,34.118652%,34.118652%);fill-opacity:1;"><g transform="translate(152.233608, 206.147902)"><path style="stroke:none;" d=""/></g></g><g style="fill:rgb(100%,34.118652%,34.118652%);fill-opacity:1;"><g transform="translate(155.768527, 206.147902)"><path style="stroke:none;" d="M 4.742188 0.167969 C 7.070312 0.167969 8.382812 -1.015625 8.382812 -2.847656 C 8.382812 -5.070312 6.484375 -5.472656 4.835938 -5.835938 C 3.585938 -6.109375 2.484375 -6.355469 2.484375 -7.371094 C 2.484375 -8.1875 3.160156 -8.65625 4.222656 -8.65625 C 5.277344 -8.65625 6.1875 -8.1875 6.460938 -7.042969 L 8.109375 -7.042969 C 7.785156 -9.148438 6.097656 -10.074219 4.25 -10.074219 C 2.289062 -10.074219 0.832031 -9.058594 0.832031 -7.226562 C 0.832031 -5.1875 2.625 -4.796875 4.210938 -4.457031 C 5.523438 -4.171875 6.734375 -3.914062 6.734375 -2.742188 C 6.734375 -1.730469 5.925781 -1.246094 4.769531 -1.246094 C 3.679688 -1.246094 2.496094 -1.675781 2.171875 -3.144531 L 0.492188 -3.144531 C 0.765625 -0.703125 2.820312 0.167969 4.742188 0.167969 Z M 4.742188 0.167969 "/></g></g><g style="fill:rgb(100%,34.118652%,34.118652%);fill-opacity:1;"><g transform="translate(164.722784, 206.147902)"><path style="stroke:none;" d="M 7.488281 0 L 7.488281 -1.480469 L 2.574219 -1.480469 L 2.574219 -4.238281 L 6.941406 -4.238281 L 6.941406 -5.707031 L 2.574219 -5.707031 L 2.574219 -8.433594 L 7.488281 -8.433594 L 7.488281 -9.917969 L 0.921875 -9.917969 L 0.921875 0 Z M 7.488281 0 "/></g></g><g style="fill:rgb(100%,34.118652%,34.118652%);fill-opacity:1;"><g transform="translate(172.767317, 206.147902)"><path style="stroke:none;" d="M 6.863281 0 L 6.863281 -1.480469 L 2.574219 -1.480469 L 2.574219 -9.917969 L 0.921875 -9.917969 L 0.921875 0 Z M 6.863281 0 "/></g></g><g style="fill:rgb(100%,34.118652%,34.118652%);fill-opacity:1;"><g transform="translate(179.785165, 206.147902)"><path style="stroke:none;" d="M 7.488281 0 L 7.488281 -1.480469 L 2.574219 -1.480469 L 2.574219 -4.238281 L 6.941406 -4.238281 L 6.941406 -5.707031 L 2.574219 -5.707031 L 2.574219 -8.433594 L 7.488281 -8.433594 L 7.488281 -9.917969 L 0.921875 -9.917969 L 0.921875 0 Z M 7.488281 0 "/></g></g><g style="fill:rgb(100%,34.118652%,34.118652%);fill-opacity:1;"><g transform="translate(187.829697, 206.147902)"><path style="stroke:none;" d="M 5.277344 0.167969 C 7.65625 0.167969 9.125 -1.128906 9.421875 -3.144531 L 7.617188 -3.144531 C 7.410156 -1.910156 6.5 -1.300781 5.25 -1.300781 C 3.289062 -1.300781 2.261719 -2.820312 2.261719 -4.964844 C 2.261719 -7.097656 3.289062 -8.605469 5.25 -8.605469 C 6.5 -8.605469 7.410156 -7.992188 7.617188 -6.925781 L 9.421875 -6.925781 C 9.136719 -8.800781 7.65625 -10.074219 5.277344 -10.074219 C 2.039062 -10.074219 0.558594 -7.679688 0.558594 -4.964844 C 0.558594 -2.25 2.039062 0.167969 5.277344 0.167969 Z M 5.277344 0.167969 "/></g></g><g style="fill:rgb(100%,34.118652%,34.118652%);fill-opacity:1;"><g transform="translate(197.706669, 206.147902)"><path style="stroke:none;" d="M 4.925781 0 L 4.925781 -8.433594 L 8.070312 -8.433594 L 8.070312 -9.917969 L 0.15625 -9.917969 L 0.15625 -8.433594 L 3.273438 -8.433594 L 3.273438 0 Z M 4.925781 0 "/></g></g></g></svg>