<?xml version="1.0" encoding="UTF-8"?><svg xmlns="http://www.w3.org/2000/svg" xmlns:xlink="http://www.w3.org/1999/xlink" contentScriptType="text/ecmascript" width="75pt" zoomAndPan="magnify" contentStyleType="text/css" viewBox="0 0 75 30.000001" height="30.000001pt" preserveAspectRatio="xMidYMid meet" version="1.2"><defs><g/></defs><g xml:id="surface1" id="surface1"><g style="fill:rgb(100%,100%,100%);fill-opacity:1;"><g transform="translate(2.80645, 15.959173)"><path style="stroke:none;" d="M 3.265625 -5.140625 C 2.734375 -5.140625 2.316406 -4.996094 1.980469 -4.492188 L 1.980469 -5.03125 L 0.488281 -5.03125 L 0.488281 1.738281 L 1.980469 1.738281 L 1.980469 -0.542969 C 2.316406 -0.0351562 2.734375 0.105469 3.265625 0.105469 C 4.554688 0.105469 5.460938 -0.976562 5.460938 -2.511719 C 5.460938 -4.054688 4.554688 -5.140625 3.265625 -5.140625 Z M 2.847656 -3.871094 C 3.515625 -3.871094 3.949219 -3.3125 3.949219 -2.511719 C 3.949219 -1.722656 3.515625 -1.164062 2.847656 -1.164062 C 2.191406 -1.164062 1.75 -1.703125 1.75 -2.511719 C 1.75 -3.328125 2.191406 -3.871094 2.847656 -3.871094 Z M 2.847656 -3.871094 "/></g></g><g style="fill:rgb(100%,100%,100%);fill-opacity:1;"><g transform="translate(8.340045, 15.959173)"><path style="stroke:none;" d="M 1.980469 0 L 1.980469 -2.121094 C 1.980469 -2.804688 2.09375 -3.203125 2.351562 -3.453125 C 2.53125 -3.621094 2.789062 -3.71875 3.203125 -3.71875 L 3.488281 -3.71875 L 3.488281 -5.140625 L 3.265625 -5.140625 C 2.734375 -5.140625 2.316406 -4.996094 1.980469 -4.492188 L 1.980469 -5.03125 L 0.488281 -5.03125 L 0.488281 0 Z M 1.980469 0 "/></g></g><g style="fill:rgb(100%,100%,100%);fill-opacity:1;"><g transform="translate(11.754088, 15.959173)"><path style="stroke:none;" d="M 2.929688 0.105469 C 4.527344 0.105469 5.574219 -0.949219 5.574219 -2.546875 C 5.574219 -4.082031 4.507812 -5.140625 2.929688 -5.140625 C 1.347656 -5.140625 0.285156 -4.09375 0.285156 -2.546875 C 0.285156 -0.941406 1.359375 0.105469 2.929688 0.105469 Z M 2.929688 -1.171875 C 2.261719 -1.171875 1.820312 -1.703125 1.820312 -2.546875 C 1.820312 -3.335938 2.261719 -3.871094 2.929688 -3.871094 C 3.605469 -3.871094 4.019531 -3.328125 4.019531 -2.546875 C 4.019531 -1.722656 3.605469 -1.171875 2.929688 -1.171875 Z M 2.929688 -1.171875 "/></g></g><g style="fill:rgb(100%,100%,100%);fill-opacity:1;"><g transform="translate(17.38523, 15.959173)"><path style="stroke:none;" d="M 2.414062 0 L 2.414062 -3.878906 L 3.167969 -3.878906 L 3.167969 -5.03125 L 2.414062 -5.03125 L 2.414062 -5.300781 C 2.414062 -5.574219 2.59375 -5.628906 2.707031 -5.628906 L 3.167969 -5.628906 L 3.167969 -6.773438 L 2.34375 -6.773438 C 1.421875 -6.773438 0.90625 -6.3125 0.90625 -5.519531 L 0.90625 -5.03125 L 0.1875 -5.03125 L 0.1875 -3.878906 L 0.90625 -3.878906 L 0.90625 0 Z M 2.414062 0 "/></g></g><g style="fill:rgb(100%,100%,100%);fill-opacity:1;"><g transform="translate(20.515478, 15.959173)"><path style="stroke:none;" d="M 2.910156 0.105469 C 4.332031 0.105469 5.105469 -0.746094 5.386719 -1.738281 L 3.886719 -1.738281 C 3.765625 -1.429688 3.445312 -1.171875 2.992188 -1.171875 C 2.617188 -1.171875 2.316406 -1.285156 2.105469 -1.554688 C 1.980469 -1.703125 1.882812 -1.953125 1.847656 -2.203125 L 5.46875 -2.203125 L 5.46875 -2.457031 C 5.46875 -4.402344 4.191406 -5.140625 2.867188 -5.140625 C 1.046875 -5.140625 0.285156 -3.753906 0.285156 -2.476562 C 0.285156 -0.984375 1.3125 0.105469 2.910156 0.105469 Z M 1.890625 -3.257812 C 1.910156 -3.375 1.953125 -3.542969 2.121094 -3.710938 C 2.335938 -3.921875 2.617188 -4.003906 2.921875 -4.003906 C 3.222656 -4.003906 3.507812 -3.921875 3.71875 -3.710938 C 3.878906 -3.550781 3.933594 -3.375 3.957031 -3.257812 Z M 1.890625 -3.257812 "/></g></g><g style="fill:rgb(100%,100%,100%);fill-opacity:1;"><g transform="translate(26.040203, 15.959173)"><path style="stroke:none;" d="M 2.75 0.105469 C 4.09375 0.105469 4.910156 -0.566406 4.910156 -1.570312 C 4.910156 -2.742188 3.808594 -2.945312 2.929688 -3.105469 C 2.351562 -3.214844 1.871094 -3.300781 1.871094 -3.640625 C 1.871094 -3.871094 2.113281 -4.019531 2.476562 -4.019531 C 2.859375 -4.019531 3.238281 -3.84375 3.382812 -3.363281 L 4.792969 -3.363281 C 4.605469 -4.507812 3.710938 -5.140625 2.484375 -5.140625 C 1.4375 -5.140625 0.460938 -4.714844 0.460938 -3.605469 C 0.460938 -2.414062 1.542969 -2.191406 2.40625 -2.023438 C 2.972656 -1.910156 3.445312 -1.8125 3.445312 -1.472656 C 3.445312 -1.191406 3.132812 -1.019531 2.734375 -1.019531 C 2.308594 -1.019531 1.871094 -1.234375 1.703125 -1.738281 L 0.257812 -1.738281 C 0.425781 -0.335938 1.695312 0.105469 2.75 0.105469 Z M 2.75 0.105469 "/></g></g><g style="fill:rgb(100%,100%,100%);fill-opacity:1;"><g transform="translate(31.032822, 15.959173)"><path style="stroke:none;" d="M 2.75 0.105469 C 4.09375 0.105469 4.910156 -0.566406 4.910156 -1.570312 C 4.910156 -2.742188 3.808594 -2.945312 2.929688 -3.105469 C 2.351562 -3.214844 1.871094 -3.300781 1.871094 -3.640625 C 1.871094 -3.871094 2.113281 -4.019531 2.476562 -4.019531 C 2.859375 -4.019531 3.238281 -3.84375 3.382812 -3.363281 L 4.792969 -3.363281 C 4.605469 -4.507812 3.710938 -5.140625 2.484375 -5.140625 C 1.4375 -5.140625 0.460938 -4.714844 0.460938 -3.605469 C 0.460938 -2.414062 1.542969 -2.191406 2.40625 -2.023438 C 2.972656 -1.910156 3.445312 -1.8125 3.445312 -1.472656 C 3.445312 -1.191406 3.132812 -1.019531 2.734375 -1.019531 C 2.308594 -1.019531 1.871094 -1.234375 1.703125 -1.738281 L 0.257812 -1.738281 C 0.425781 -0.335938 1.695312 0.105469 2.75 0.105469 Z M 2.75 0.105469 "/></g></g><g style="fill:rgb(100%,100%,100%);fill-opacity:1;"><g transform="translate(36.02544, 15.959173)"><path style="stroke:none;" d="M 1.234375 -5.378906 C 1.695312 -5.378906 2.078125 -5.664062 2.078125 -6.144531 C 2.078125 -6.613281 1.695312 -6.914062 1.234375 -6.914062 C 0.773438 -6.914062 0.390625 -6.613281 0.390625 -6.144531 C 0.390625 -5.664062 0.773438 -5.378906 1.234375 -5.378906 Z M 1.980469 0 L 1.980469 -5.03125 L 0.488281 -5.03125 L 0.488281 0 Z M 1.980469 0 "/></g></g><g style="fill:rgb(100%,100%,100%);fill-opacity:1;"><g transform="translate(38.268853, 15.959173)"><path style="stroke:none;" d="M 2.929688 0.105469 C 4.527344 0.105469 5.574219 -0.949219 5.574219 -2.546875 C 5.574219 -4.082031 4.507812 -5.140625 2.929688 -5.140625 C 1.347656 -5.140625 0.285156 -4.09375 0.285156 -2.546875 C 0.285156 -0.941406 1.359375 0.105469 2.929688 0.105469 Z M 2.929688 -1.171875 C 2.261719 -1.171875 1.820312 -1.703125 1.820312 -2.546875 C 1.820312 -3.335938 2.261719 -3.871094 2.929688 -3.871094 C 3.605469 -3.871094 4.019531 -3.328125 4.019531 -2.546875 C 4.019531 -1.722656 3.605469 -1.171875 2.929688 -1.171875 Z M 2.929688 -1.171875 "/></g></g><g style="fill:rgb(100%,100%,100%);fill-opacity:1;"><g transform="translate(43.899996, 15.959173)"><path style="stroke:none;" d="M 1.980469 0 L 1.980469 -2.832031 C 1.980469 -3.265625 2.042969 -3.515625 2.164062 -3.683594 C 2.300781 -3.871094 2.519531 -3.941406 2.832031 -3.941406 C 3.082031 -3.941406 3.257812 -3.886719 3.382812 -3.753906 C 3.53125 -3.59375 3.59375 -3.328125 3.59375 -2.832031 L 3.59375 0 L 5.085938 0 L 5.085938 -2.8125 C 5.085938 -3.433594 5.085938 -3.835938 4.890625 -4.269531 C 4.6875 -4.730469 4.261719 -5.140625 3.265625 -5.140625 C 2.734375 -5.140625 2.316406 -4.996094 1.980469 -4.492188 L 1.980469 -5.03125 L 0.488281 -5.03125 L 0.488281 0 Z M 1.980469 0 "/></g></g><g style="fill:rgb(100%,100%,100%);fill-opacity:1;"><g transform="translate(49.211883, 15.959173)"><path style="stroke:none;" d="M 1.945312 0.105469 C 2.359375 0.105469 2.761719 0.0429688 3.054688 -0.160156 C 3.214844 -0.265625 3.328125 -0.417969 3.410156 -0.613281 L 3.410156 0 L 4.898438 0 L 4.898438 -2.386719 C 4.898438 -3.320312 4.898438 -4.109375 4.277344 -4.640625 C 3.878906 -4.988281 3.300781 -5.140625 2.714844 -5.140625 C 1.703125 -5.140625 0.664062 -4.617188 0.480469 -3.355469 L 1.960938 -3.355469 C 2.03125 -3.78125 2.359375 -4.019531 2.707031 -4.019531 C 2.929688 -4.019531 3.097656 -3.96875 3.214844 -3.84375 C 3.328125 -3.710938 3.398438 -3.515625 3.417969 -3.257812 L 2.113281 -3.027344 C 1.730469 -2.957031 1.277344 -2.859375 0.921875 -2.628906 C 0.558594 -2.386719 0.292969 -2.015625 0.292969 -1.410156 C 0.292969 -0.398438 1.039062 0.105469 1.945312 0.105469 Z M 2.378906 -1.019531 C 2.058594 -1.019531 1.785156 -1.144531 1.785156 -1.464844 C 1.785156 -1.605469 1.835938 -1.703125 1.917969 -1.785156 C 2.042969 -1.898438 2.203125 -1.960938 2.53125 -2.023438 L 3.445312 -2.203125 C 3.425781 -1.652344 3.328125 -1.332031 2.921875 -1.144531 C 2.742188 -1.066406 2.546875 -1.019531 2.378906 -1.019531 Z M 2.378906 -1.019531 "/></g></g><g style="fill:rgb(100%,100%,100%);fill-opacity:1;"><g transform="translate(54.319792, 15.959173)"><path style="stroke:none;" d="M 2.617188 0 L 2.617188 -1.207031 L 2.246094 -1.207031 C 2.128906 -1.207031 1.953125 -1.242188 1.953125 -1.519531 L 1.953125 -6.773438 L 0.460938 -6.773438 L 0.460938 -1.003906 C 0.460938 -0.363281 0.878906 0 1.617188 0 Z M 2.617188 0 "/></g></g><g style="fill:rgb(100%,100%,100%);fill-opacity:1;"><g transform="translate(56.917931, 15.959173)"><path style="stroke:none;" d="M 2.910156 0.105469 C 4.332031 0.105469 5.105469 -0.746094 5.386719 -1.738281 L 3.886719 -1.738281 C 3.765625 -1.429688 3.445312 -1.171875 2.992188 -1.171875 C 2.617188 -1.171875 2.316406 -1.285156 2.105469 -1.554688 C 1.980469 -1.703125 1.882812 -1.953125 1.847656 -2.203125 L 5.46875 -2.203125 L 5.46875 -2.457031 C 5.46875 -4.402344 4.191406 -5.140625 2.867188 -5.140625 C 1.046875 -5.140625 0.285156 -3.753906 0.285156 -2.476562 C 0.285156 -0.984375 1.3125 0.105469 2.910156 0.105469 Z M 1.890625 -3.257812 C 1.910156 -3.375 1.953125 -3.542969 2.121094 -3.710938 C 2.335938 -3.921875 2.617188 -4.003906 2.921875 -4.003906 C 3.222656 -4.003906 3.507812 -3.921875 3.71875 -3.710938 C 3.878906 -3.550781 3.933594 -3.375 3.957031 -3.257812 Z M 1.890625 -3.257812 "/></g></g><g style="fill:rgb(100%,100%,100%);fill-opacity:1;"><g transform="translate(62.442653, 15.959173)"><path style="stroke:none;" d="M 2.496094 0.105469 C 3.027344 0.105469 3.445312 -0.0351562 3.78125 -0.542969 L 3.78125 0 L 5.273438 0 L 5.273438 -6.773438 L 3.78125 -6.773438 L 3.78125 -4.492188 C 3.445312 -4.996094 3.027344 -5.140625 2.496094 -5.140625 C 1.207031 -5.140625 0.300781 -4.054688 0.300781 -2.519531 C 0.300781 -0.976562 1.207031 0.105469 2.496094 0.105469 Z M 2.910156 -1.164062 C 2.246094 -1.164062 1.8125 -1.722656 1.8125 -2.519531 C 1.8125 -3.3125 2.246094 -3.871094 2.910156 -3.871094 C 3.570312 -3.871094 4.011719 -3.328125 4.011719 -2.519531 C 4.011719 -1.703125 3.570312 -1.164062 2.910156 -1.164062 Z M 2.910156 -1.164062 "/></g></g><g style="fill:rgb(100%,34.118652%,34.118652%);fill-opacity:1;"><g transform="translate(2.80645, 20.983226)"><path style="stroke:none;" d="M 1.226562 0 L 1.675781 -1.824219 L 2.121094 0 L 2.667969 0 L 3.300781 -2.324219 L 2.894531 -2.324219 L 2.386719 -0.394531 L 1.90625 -2.324219 L 1.445312 -2.324219 L 0.964844 -0.394531 L 0.453125 -2.324219 L 0.046875 -2.324219 L 0.6875 0 Z M 1.226562 0 "/></g></g><g style="fill:rgb(100%,34.118652%,34.118652%);fill-opacity:1;"><g transform="translate(6.158494, 20.983226)"><path style="stroke:none;" d="M 1.753906 0 L 1.753906 -0.347656 L 0.601562 -0.347656 L 0.601562 -0.992188 L 1.628906 -0.992188 L 1.628906 -1.339844 L 0.601562 -1.339844 L 0.601562 -1.976562 L 1.753906 -1.976562 L 1.753906 -2.324219 L 0.214844 -2.324219 L 0.214844 0 Z M 1.753906 0 "/></g></g><g style="fill:rgb(100%,34.118652%,34.118652%);fill-opacity:1;"><g transform="translate(8.044779, 20.983226)"><path style="stroke:none;" d=""/></g></g><g style="fill:rgb(100%,34.118652%,34.118652%);fill-opacity:1;"><g transform="translate(8.873649, 20.983226)"><path style="stroke:none;" d="M 0.601562 0 L 0.601562 -0.992188 L 1.65625 -0.992188 L 1.65625 0 L 2.042969 0 L 2.042969 -2.324219 L 1.65625 -2.324219 L 1.65625 -1.339844 L 0.601562 -1.339844 L 0.601562 -2.324219 L 0.214844 -2.324219 L 0.214844 0 Z M 0.601562 0 "/></g></g><g style="fill:rgb(100%,34.118652%,34.118652%);fill-opacity:1;"><g transform="translate(11.137803, 20.983226)"><path style="stroke:none;" d="M 1.753906 0 L 1.753906 -0.347656 L 0.601562 -0.347656 L 0.601562 -0.992188 L 1.628906 -0.992188 L 1.628906 -1.339844 L 0.601562 -1.339844 L 0.601562 -1.976562 L 1.753906 -1.976562 L 1.753906 -2.324219 L 0.214844 -2.324219 L 0.214844 0 Z M 1.753906 0 "/></g></g><g style="fill:rgb(100%,34.118652%,34.118652%);fill-opacity:1;"><g transform="translate(13.024089, 20.983226)"><path style="stroke:none;" d="M 1.609375 0 L 1.609375 -0.347656 L 0.601562 -0.347656 L 0.601562 -2.324219 L 0.214844 -2.324219 L 0.214844 0 Z M 1.609375 0 "/></g></g><g style="fill:rgb(100%,34.118652%,34.118652%);fill-opacity:1;"><g transform="translate(14.669638, 20.983226)"><path style="stroke:none;" d="M 0.601562 0 L 0.601562 -0.949219 L 1.175781 -0.949219 C 1.617188 -0.949219 1.910156 -1.207031 1.910156 -1.644531 C 1.910156 -2.117188 1.613281 -2.324219 1.175781 -2.324219 L 0.214844 -2.324219 L 0.214844 0 Z M 0.601562 -1.976562 L 1.125 -1.976562 C 1.382812 -1.976562 1.53125 -1.855469 1.53125 -1.632812 C 1.53125 -1.40625 1.386719 -1.285156 1.125 -1.285156 L 0.601562 -1.285156 Z M 0.601562 -1.976562 "/></g></g><g style="fill:rgb(100%,34.118652%,34.118652%);fill-opacity:1;"><g transform="translate(16.671721, 20.983226)"><path style="stroke:none;" d=""/></g></g><g style="fill:rgb(100%,34.118652%,34.118652%);fill-opacity:1;"><g transform="translate(17.500591, 20.983226)"><path style="stroke:none;" d="M 0.164062 0.519531 C 0.546875 0.492188 0.683594 0.222656 0.683594 -0.0234375 C 0.683594 -0.253906 0.578125 -0.410156 0.386719 -0.410156 C 0.242188 -0.410156 0.144531 -0.316406 0.144531 -0.183594 C 0.144531 -0.046875 0.238281 0.03125 0.335938 0.03125 C 0.398438 0.03125 0.449219 0.0117188 0.480469 -0.0351562 C 0.484375 -0.0078125 0.484375 0.0234375 0.480469 0.0507812 C 0.46875 0.210938 0.355469 0.316406 0.164062 0.332031 Z M 0.164062 0.519531 "/></g></g><g style="fill:rgb(100%,34.118652%,34.118652%);fill-opacity:1;"><g transform="translate(18.329461, 20.983226)"><path style="stroke:none;" d="M 1.257812 0 L 1.257812 -0.902344 L 2.109375 -2.324219 L 1.660156 -2.324219 L 1.050781 -1.28125 L 0.449219 -2.324219 L -0.00390625 -2.324219 L 0.851562 -0.902344 L 0.851562 0 Z M 1.257812 0 "/></g></g><g style="fill:rgb(100%,34.118652%,34.118652%);fill-opacity:1;"><g transform="translate(20.438202, 20.983226)"><path style="stroke:none;" d="M 1.242188 0.0390625 C 2 0.0390625 2.355469 -0.523438 2.355469 -1.164062 C 2.355469 -1.804688 2 -2.363281 1.242188 -2.363281 C 0.484375 -2.363281 0.132812 -1.804688 0.132812 -1.164062 C 0.132812 -0.523438 0.484375 0.0390625 1.242188 0.0390625 Z M 1.242188 -0.308594 C 0.785156 -0.308594 0.53125 -0.660156 0.53125 -1.164062 C 0.53125 -1.664062 0.785156 -2.015625 1.242188 -2.015625 C 1.703125 -2.015625 1.957031 -1.664062 1.957031 -1.164062 C 1.957031 -0.660156 1.703125 -0.308594 1.242188 -0.308594 Z M 1.242188 -0.308594 "/></g></g><g style="fill:rgb(100%,34.118652%,34.118652%);fill-opacity:1;"><g transform="translate(22.927856, 20.983226)"><path style="stroke:none;" d="M 1.109375 0.0390625 C 1.75 0.0390625 2.019531 -0.308594 2.019531 -0.828125 L 2.019531 -2.324219 L 1.632812 -2.324219 L 1.632812 -0.828125 C 1.632812 -0.519531 1.492188 -0.304688 1.109375 -0.304688 C 0.722656 -0.304688 0.582031 -0.519531 0.582031 -0.828125 L 0.582031 -2.324219 L 0.195312 -2.324219 L 0.195312 -0.828125 C 0.195312 -0.308594 0.46875 0.0390625 1.109375 0.0390625 Z M 1.109375 0.0390625 "/></g></g><g style="fill:rgb(100%,34.118652%,34.118652%);fill-opacity:1;"><g transform="translate(25.146301, 20.983226)"><path style="stroke:none;" d=""/></g></g><g style="fill:rgb(100%,34.118652%,34.118652%);fill-opacity:1;"><g transform="translate(25.975171, 20.983226)"><path style="stroke:none;" d="M 1.113281 0.0390625 C 1.65625 0.0390625 1.964844 -0.238281 1.964844 -0.667969 C 1.964844 -1.1875 1.519531 -1.28125 1.132812 -1.367188 C 0.839844 -1.433594 0.582031 -1.492188 0.582031 -1.726562 C 0.582031 -1.921875 0.742188 -2.03125 0.992188 -2.03125 C 1.238281 -2.03125 1.449219 -1.921875 1.515625 -1.652344 L 1.902344 -1.652344 C 1.824219 -2.144531 1.429688 -2.363281 0.996094 -2.363281 C 0.535156 -2.363281 0.195312 -2.125 0.195312 -1.695312 C 0.195312 -1.214844 0.617188 -1.125 0.988281 -1.046875 C 1.296875 -0.976562 1.578125 -0.917969 1.578125 -0.644531 C 1.578125 -0.40625 1.390625 -0.292969 1.117188 -0.292969 C 0.863281 -0.292969 0.585938 -0.394531 0.507812 -0.738281 L 0.117188 -0.738281 C 0.179688 -0.164062 0.660156 0.0390625 1.113281 0.0390625 Z M 1.113281 0.0390625 "/></g></g><g style="fill:rgb(100%,34.118652%,34.118652%);fill-opacity:1;"><g transform="translate(28.07477, 20.983226)"><path style="stroke:none;" d="M 1.753906 0 L 1.753906 -0.347656 L 0.601562 -0.347656 L 0.601562 -0.992188 L 1.628906 -0.992188 L 1.628906 -1.339844 L 0.601562 -1.339844 L 0.601562 -1.976562 L 1.753906 -1.976562 L 1.753906 -2.324219 L 0.214844 -2.324219 L 0.214844 0 Z M 1.753906 0 "/></g></g><g style="fill:rgb(100%,34.118652%,34.118652%);fill-opacity:1;"><g transform="translate(29.961055, 20.983226)"><path style="stroke:none;" d="M 1.609375 0 L 1.609375 -0.347656 L 0.601562 -0.347656 L 0.601562 -2.324219 L 0.214844 -2.324219 L 0.214844 0 Z M 1.609375 0 "/></g></g><g style="fill:rgb(100%,34.118652%,34.118652%);fill-opacity:1;"><g transform="translate(31.606604, 20.983226)"><path style="stroke:none;" d="M 1.753906 0 L 1.753906 -0.347656 L 0.601562 -0.347656 L 0.601562 -0.992188 L 1.628906 -0.992188 L 1.628906 -1.339844 L 0.601562 -1.339844 L 0.601562 -1.976562 L 1.753906 -1.976562 L 1.753906 -2.324219 L 0.214844 -2.324219 L 0.214844 0 Z M 1.753906 0 "/></g></g><g style="fill:rgb(100%,34.118652%,34.118652%);fill-opacity:1;"><g transform="translate(33.49289, 20.983226)"><path style="stroke:none;" d="M 1.238281 0.0390625 C 1.796875 0.0390625 2.140625 -0.265625 2.210938 -0.738281 L 1.785156 -0.738281 C 1.738281 -0.449219 1.523438 -0.304688 1.230469 -0.304688 C 0.769531 -0.304688 0.53125 -0.660156 0.53125 -1.164062 C 0.53125 -1.664062 0.769531 -2.015625 1.230469 -2.015625 C 1.523438 -2.015625 1.738281 -1.875 1.785156 -1.625 L 2.210938 -1.625 C 2.140625 -2.0625 1.796875 -2.363281 1.238281 -2.363281 C 0.476562 -2.363281 0.132812 -1.800781 0.132812 -1.164062 C 0.132812 -0.527344 0.476562 0.0390625 1.238281 0.0390625 Z M 1.238281 0.0390625 "/></g></g><g style="fill:rgb(100%,34.118652%,34.118652%);fill-opacity:1;"><g transform="translate(35.808847, 20.983226)"><path style="stroke:none;" d="M 1.15625 0 L 1.15625 -1.976562 L 1.894531 -1.976562 L 1.894531 -2.324219 L 0.0351562 -2.324219 L 0.0351562 -1.976562 L 0.769531 -1.976562 L 0.769531 0 Z M 1.15625 0 "/></g></g></g></svg>